<mxfile host="65bd71144e" scale="1" border="20">
    <diagram id="4_nfnfdhDg5d41BVBWpk" name="Page-1">
        <mxGraphModel dx="5379" dy="2456" grid="1" gridSize="10" guides="1" tooltips="1" connect="1" arrows="1" fold="1" page="1" pageScale="1" pageWidth="1169" pageHeight="827" background="#ffffff" math="0" shadow="0">
            <root>
                <mxCell id="0"/>
                <mxCell id="1" parent="0"/>
                <mxCell id="1450" style="edgeStyle=none;shape=connector;rounded=1;jumpStyle=arc;html=1;labelBackgroundColor=default;strokeColor=default;fontFamily=Helvetica;fontSize=11;fontColor=default;endArrow=none;endFill=0;exitX=1;exitY=0.5;exitDx=0;exitDy=0;" parent="1" source="1897" target="1443" edge="1">
                    <mxGeometry relative="1" as="geometry">
                        <Array as="points">
                            <mxPoint x="-1660" y="-1390"/>
                        </Array>
                        <mxPoint x="-1680" y="-1420" as="sourcePoint"/>
                    </mxGeometry>
                </mxCell>
                <mxCell id="1419" style="edgeStyle=none;shape=connector;rounded=1;jumpStyle=arc;html=1;labelBackgroundColor=default;strokeColor=default;fontFamily=Helvetica;fontSize=11;fontColor=default;endArrow=none;endFill=0;exitX=0;exitY=0.5;exitDx=0;exitDy=0;" parent="1" source="1897" target="1420" edge="1">
                    <mxGeometry relative="1" as="geometry">
                        <mxPoint x="-2020" y="-1310" as="targetPoint"/>
                        <Array as="points">
                            <mxPoint x="-1990" y="-1370"/>
                            <mxPoint x="-2020" y="-1370"/>
                            <mxPoint x="-2020" y="-1320"/>
                        </Array>
                        <mxPoint x="-1970" y="-1370" as="sourcePoint"/>
                    </mxGeometry>
                </mxCell>
                <mxCell id="1435" style="edgeStyle=none;shape=connector;rounded=1;jumpStyle=arc;html=1;entryX=1;entryY=0.5;entryDx=0;entryDy=0;labelBackgroundColor=default;strokeColor=default;fontFamily=Helvetica;fontSize=11;fontColor=default;endArrow=none;endFill=0;exitX=1;exitY=0.75;exitDx=0;exitDy=0;" parent="1" source="1897" target="1433" edge="1">
                    <mxGeometry relative="1" as="geometry">
                        <Array as="points">
                            <mxPoint x="-1640" y="-1380"/>
                            <mxPoint x="-1640" y="-1150"/>
                        </Array>
                        <mxPoint x="-1650" y="-1380" as="sourcePoint"/>
                    </mxGeometry>
                </mxCell>
                <mxCell id="1672" style="edgeStyle=none;html=1;endArrow=none;endFill=0;jumpStyle=arc;exitX=0;exitY=0.25;exitDx=0;exitDy=0;entryX=1;entryY=0.5;entryDx=0;entryDy=0;" parent="1" source="1897" target="1669" edge="1">
                    <mxGeometry relative="1" as="geometry">
                        <Array as="points">
                            <mxPoint x="-1930" y="-1420"/>
                            <mxPoint x="-2030" y="-1422"/>
                        </Array>
                        <mxPoint x="-1980" y="-1410" as="sourcePoint"/>
                        <mxPoint x="-2082" y="-1413" as="targetPoint"/>
                    </mxGeometry>
                </mxCell>
                <mxCell id="1490" style="edgeStyle=none;shape=connector;rounded=1;jumpStyle=arc;html=1;entryX=0;entryY=0.5;entryDx=0;entryDy=0;labelBackgroundColor=default;strokeColor=default;fontFamily=Helvetica;fontSize=11;fontColor=default;endArrow=none;endFill=0;exitX=0.589;exitY=0.996;exitDx=0;exitDy=0;exitPerimeter=0;" parent="1" source="1897" target="1480" edge="1">
                    <mxGeometry relative="1" as="geometry">
                        <Array as="points">
                            <mxPoint x="-1830" y="-1320"/>
                            <mxPoint x="-1720" y="-1320"/>
                            <mxPoint x="-1710" y="-1320"/>
                            <mxPoint x="-1620" y="-1320"/>
                        </Array>
                        <mxPoint x="-1800" y="-1320" as="sourcePoint"/>
                    </mxGeometry>
                </mxCell>
                <mxCell id="1665" value="(0, N)" style="edgeLabel;html=1;align=center;verticalAlign=middle;resizable=0;points=[];" parent="1490" vertex="1" connectable="0">
                    <mxGeometry x="0.8608" y="1" relative="1" as="geometry">
                        <mxPoint x="5" y="-9" as="offset"/>
                    </mxGeometry>
                </mxCell>
                <mxCell id="1407" value="" style="edgeStyle=none;shape=connector;rounded=1;fillStyle=auto;html=1;labelBackgroundColor=default;strokeColor=default;strokeWidth=1;fontFamily=Helvetica;fontSize=11;fontColor=default;endArrow=none;startSize=6;endSize=6;fillColor=#000000;entryX=0.5;entryY=0;entryDx=0;entryDy=0;exitX=0.345;exitY=0.97;exitDx=0;exitDy=0;exitPerimeter=0;" parent="1" source="1897" target="1411" edge="1">
                    <mxGeometry relative="1" as="geometry">
                        <mxPoint x="-1920.65" y="-1280.28" as="sourcePoint"/>
                        <Array as="points">
                            <mxPoint x="-1850" y="-1290"/>
                            <mxPoint x="-1920" y="-1290"/>
                        </Array>
                    </mxGeometry>
                </mxCell>
                <mxCell id="1408" value="(0, 1)" style="edgeLabel;html=1;align=center;verticalAlign=middle;resizable=0;points=[];fontSize=11;fontFamily=Helvetica;fontColor=default;" parent="1407" vertex="1" connectable="0">
                    <mxGeometry x="-0.2675" y="1" relative="1" as="geometry">
                        <mxPoint x="-52" y="31" as="offset"/>
                    </mxGeometry>
                </mxCell>
                <mxCell id="1409" value="" style="edgeStyle=none;shape=connector;rounded=1;fillStyle=auto;html=1;labelBackgroundColor=default;strokeColor=default;strokeWidth=1;fontFamily=Helvetica;fontSize=11;fontColor=default;endArrow=none;startSize=6;endSize=6;fillColor=#000000;" parent="1" source="1411" target="1413" edge="1">
                    <mxGeometry relative="1" as="geometry"/>
                </mxCell>
                <mxCell id="1410" value="(1, 1)" style="edgeLabel;html=1;align=center;verticalAlign=middle;resizable=0;points=[];fontSize=11;fontFamily=Helvetica;fontColor=default;" parent="1409" vertex="1" connectable="0">
                    <mxGeometry x="-0.327" y="1" relative="1" as="geometry">
                        <mxPoint x="15" y="-9" as="offset"/>
                    </mxGeometry>
                </mxCell>
                <mxCell id="1411" value="&lt;font style=&quot;font-size: 12px;&quot;&gt;gestione&lt;sub style=&quot;&quot;&gt;(S-C)&lt;/sub&gt;&lt;/font&gt;" style="rhombus;whiteSpace=wrap;html=1;" parent="1" vertex="1">
                    <mxGeometry x="-1980.19" y="-1261" width="120" height="40.28" as="geometry"/>
                </mxCell>
                <mxCell id="1412" value="" style="edgeStyle=none;jumpStyle=arc;html=1;endArrow=none;endFill=0;" parent="1" source="1413" target="1411" edge="1">
                    <mxGeometry relative="1" as="geometry"/>
                </mxCell>
                <mxCell id="1421" style="edgeStyle=none;shape=connector;rounded=1;jumpStyle=arc;html=1;exitX=0;exitY=0.25;exitDx=0;exitDy=0;entryX=0.5;entryY=1;entryDx=0;entryDy=0;labelBackgroundColor=default;strokeColor=default;fontFamily=Helvetica;fontSize=11;fontColor=default;endArrow=none;endFill=0;" parent="1" source="1413" target="1420" edge="1">
                    <mxGeometry relative="1" as="geometry">
                        <Array as="points">
                            <mxPoint x="-1980" y="-1150"/>
                            <mxPoint x="-2020" y="-1260"/>
                        </Array>
                    </mxGeometry>
                </mxCell>
                <mxCell id="1413" value="CANALE" style="rounded=0;whiteSpace=wrap;html=1;" parent="1" vertex="1">
                    <mxGeometry x="-1961.19" y="-1160.28" width="80" height="40" as="geometry"/>
                </mxCell>
                <mxCell id="1415" value="" style="endArrow=oval;html=1;fillStyle=auto;strokeWidth=1;startSize=6;endSize=6;fillColor=#000000;startArrow=none;startFill=0;endFill=0;" parent="1" source="1413" edge="1">
                    <mxGeometry width="50" height="50" relative="1" as="geometry">
                        <mxPoint x="-1871.19" y="-1150.28" as="sourcePoint"/>
                        <mxPoint x="-1888" y="-1097" as="targetPoint"/>
                    </mxGeometry>
                </mxCell>
                <mxCell id="1416" value="trailer" style="edgeLabel;html=1;align=center;verticalAlign=middle;resizable=0;points=[];" parent="1415" vertex="1" connectable="0">
                    <mxGeometry x="0.4791" y="1" relative="1" as="geometry">
                        <mxPoint x="22" y="14" as="offset"/>
                    </mxGeometry>
                </mxCell>
                <mxCell id="1417" value="" style="endArrow=oval;html=1;fillStyle=auto;strokeWidth=1;startSize=6;endSize=6;fillColor=#000000;startArrow=none;startFill=0;endFill=0;" parent="1" source="1413" edge="1">
                    <mxGeometry width="50" height="50" relative="1" as="geometry">
                        <mxPoint x="-1632.324" y="-960" as="sourcePoint"/>
                        <mxPoint x="-1868" y="-1184" as="targetPoint"/>
                    </mxGeometry>
                </mxCell>
                <mxCell id="1418" value="descrizione" style="edgeLabel;html=1;align=center;verticalAlign=middle;resizable=0;points=[];" parent="1417" vertex="1" connectable="0">
                    <mxGeometry x="0.4791" y="1" relative="1" as="geometry">
                        <mxPoint x="42" y="-11" as="offset"/>
                    </mxGeometry>
                </mxCell>
                <mxCell id="1420" value="follower" style="rhombus;whiteSpace=wrap;html=1;" parent="1" vertex="1">
                    <mxGeometry x="-2059.61" y="-1320.28" width="80" height="40" as="geometry"/>
                </mxCell>
                <mxCell id="1424" value="(0,N)" style="edgeLabel;html=1;align=center;verticalAlign=middle;resizable=0;points=[];fontSize=11;fontFamily=Helvetica;fontColor=default;" parent="1" vertex="1" connectable="0">
                    <mxGeometry x="-2042.8735566657904" y="-1329.9975837496715" as="geometry">
                        <mxPoint x="6" y="3" as="offset"/>
                    </mxGeometry>
                </mxCell>
                <mxCell id="1425" value="(0,N)" style="edgeLabel;html=1;align=center;verticalAlign=middle;resizable=0;points=[];fontSize=11;fontFamily=Helvetica;fontColor=default;" parent="1" vertex="1" connectable="0">
                    <mxGeometry x="-2042.8735566657906" y="-1269.9975837496715" as="geometry">
                        <mxPoint x="6" y="3" as="offset"/>
                    </mxGeometry>
                </mxCell>
                <mxCell id="1427" value="(0, N)" style="edgeLabel;html=1;align=center;verticalAlign=middle;resizable=0;points=[];fontSize=11;fontFamily=Helvetica;fontColor=default;" parent="1" vertex="1" connectable="0">
                    <mxGeometry x="-1825.1699999999998" y="-1160.28" as="geometry"/>
                </mxCell>
                <mxCell id="1428" value="(0, N)" style="edgeLabel;html=1;align=center;verticalAlign=middle;resizable=0;points=[];" parent="1" vertex="1" connectable="0">
                    <mxGeometry x="-1669.9999999999998" y="-1160.19" as="geometry"/>
                </mxCell>
                <mxCell id="1434" style="edgeStyle=none;shape=connector;rounded=1;jumpStyle=none;html=1;exitX=0;exitY=0.5;exitDx=0;exitDy=0;entryX=1;entryY=0.25;entryDx=0;entryDy=0;labelBackgroundColor=default;strokeColor=default;fontFamily=Helvetica;fontSize=11;fontColor=default;endArrow=none;endFill=0;" parent="1" source="1433" target="1413" edge="1">
                    <mxGeometry relative="1" as="geometry"/>
                </mxCell>
                <mxCell id="1433" value="abbonamento" style="rhombus;whiteSpace=wrap;html=1;" parent="1" vertex="1">
                    <mxGeometry x="-1805.8099999999997" y="-1169.28" width="120.65" height="39.36" as="geometry"/>
                </mxCell>
                <mxCell id="1438" style="edgeStyle=none;jumpStyle=arc;html=1;endArrow=none;endFill=0;startArrow=none;" parent="1" source="1443" target="1441" edge="1">
                    <mxGeometry relative="1" as="geometry">
                        <mxPoint x="-1910.4705882352944" y="-1546.44" as="targetPoint"/>
                        <mxPoint x="-1704.18" y="-1474.67" as="sourcePoint"/>
                    </mxGeometry>
                </mxCell>
                <mxCell id="1439" value="(1, 1)" style="edgeLabel;html=1;align=center;verticalAlign=middle;resizable=0;points=[];" parent="1438" vertex="1" connectable="0">
                    <mxGeometry x="-0.3959" y="2" relative="1" as="geometry">
                        <mxPoint x="-18" y="1" as="offset"/>
                    </mxGeometry>
                </mxCell>
                <mxCell id="1441" value="PORTAFOGLIO" style="whiteSpace=wrap;html=1;" parent="1" vertex="1">
                    <mxGeometry x="-1710.0000000000002" y="-1546.44" width="100" height="40" as="geometry"/>
                </mxCell>
                <mxCell id="1442" value="(0, 1)" style="edgeLabel;html=1;align=center;verticalAlign=middle;resizable=0;points=[];" parent="1" vertex="1" connectable="0">
                    <mxGeometry x="-1679.0317823182563" y="-1425.72" as="geometry"/>
                </mxCell>
                <mxCell id="1443" value="conto" style="rhombus;whiteSpace=wrap;html=1;" parent="1" vertex="1">
                    <mxGeometry x="-1700" y="-1470.64" width="80" height="40" as="geometry"/>
                </mxCell>
                <mxCell id="1444" value="" style="endArrow=oval;html=1;fillStyle=auto;strokeWidth=1;startSize=6;endSize=6;fillColor=#000000;startArrow=none;startFill=0;endFill=0;" parent="1" source="1441" edge="1">
                    <mxGeometry width="50" height="50" relative="1" as="geometry">
                        <mxPoint x="-1660.0000000000002" y="-1526.3200000000002" as="sourcePoint"/>
                        <mxPoint x="-1660.0000000000002" y="-1566.44" as="targetPoint"/>
                    </mxGeometry>
                </mxCell>
                <mxCell id="1445" value="totale&lt;br&gt;bits" style="edgeLabel;html=1;align=center;verticalAlign=middle;resizable=0;points=[];" parent="1444" vertex="1" connectable="0">
                    <mxGeometry x="0.4791" y="1" relative="1" as="geometry">
                        <mxPoint x="21" y="-5" as="offset"/>
                    </mxGeometry>
                </mxCell>
                <mxCell id="1454" value="bits" style="endArrow=oval;html=1;fillStyle=auto;strokeWidth=1;startSize=6;endSize=6;fillColor=#000000;startArrow=none;startFill=0;endFill=0;strokeColor=#000000;" parent="1" edge="1">
                    <mxGeometry x="1" y="20" width="50" height="50" relative="1" as="geometry">
                        <mxPoint x="-1399.3600000000001" y="-1526.44" as="sourcePoint"/>
                        <mxPoint x="-1419.3600000000001" y="-1526.44" as="targetPoint"/>
                        <mxPoint x="-20" y="-20" as="offset"/>
                    </mxGeometry>
                </mxCell>
                <mxCell id="1469" value="(0, N)" style="edgeStyle=none;jumpStyle=arc;html=1;endArrow=none;endFill=0;entryX=0.5;entryY=0;entryDx=0;entryDy=0;exitX=0.479;exitY=0.968;exitDx=0;exitDy=0;exitPerimeter=0;" parent="1" source="1897" target="1471" edge="1">
                    <mxGeometry x="0.9683" y="19" relative="1" as="geometry">
                        <mxPoint x="-1491.0000000000002" y="-1300.28" as="targetPoint"/>
                        <Array as="points">
                            <mxPoint x="-1840" y="-1270"/>
                            <mxPoint x="-1720" y="-1270"/>
                            <mxPoint x="-1630" y="-1270"/>
                            <mxPoint x="-1536" y="-1270"/>
                        </Array>
                        <mxPoint as="offset"/>
                        <mxPoint x="-1879.6099999999997" y="-1290.28" as="sourcePoint"/>
                    </mxGeometry>
                </mxCell>
                <mxCell id="1470" value="(1, 1)" style="edgeStyle=none;jumpStyle=arc;html=1;exitX=0.5;exitY=1;exitDx=0;exitDy=0;entryX=0.5;entryY=0;entryDx=0;entryDy=0;startArrow=none;startFill=0;endArrow=none;endFill=0;" parent="1" source="1471" target="1472" edge="1">
                    <mxGeometry x="-0.5083" y="20" relative="1" as="geometry">
                        <mxPoint as="offset"/>
                    </mxGeometry>
                </mxCell>
                <mxCell id="1471" value="streaming" style="rhombus;whiteSpace=wrap;html=1;" parent="1" vertex="1">
                    <mxGeometry x="-1575.5500000000002" y="-1242.83" width="80" height="40" as="geometry"/>
                </mxCell>
                <mxCell id="1472" value="PROGRAMMAZIONE" style="whiteSpace=wrap;html=1;" parent="1" vertex="1">
                    <mxGeometry x="-1604.8899999999999" y="-1162.78" width="140" height="40" as="geometry"/>
                </mxCell>
                <mxCell id="1473" style="edgeStyle=none;shape=connector;rounded=1;fillStyle=auto;html=1;labelBackgroundColor=default;strokeColor=default;strokeWidth=1;fontFamily=Helvetica;fontSize=11;fontColor=default;endArrow=none;endFill=0;startSize=6;endSize=6;fillColor=#000000;startArrow=oval;startFill=0;" parent="1" target="1472" edge="1">
                    <mxGeometry relative="1" as="geometry">
                        <mxPoint x="-1575.016050420168" y="-1143.51" as="targetPoint"/>
                        <mxPoint x="-1444.5499999999997" y="-1143.55" as="sourcePoint"/>
                    </mxGeometry>
                </mxCell>
                <mxCell id="1474" value="timestamp" style="edgeLabel;html=1;align=center;verticalAlign=middle;resizable=0;points=[];fontSize=11;fontFamily=Helvetica;fontColor=default;" parent="1473" vertex="1" connectable="0">
                    <mxGeometry x="-0.2572" y="1" relative="1" as="geometry">
                        <mxPoint x="43" as="offset"/>
                    </mxGeometry>
                </mxCell>
                <mxCell id="1475" style="edgeStyle=none;shape=connector;rounded=1;fillStyle=auto;html=1;labelBackgroundColor=default;strokeColor=default;strokeWidth=1;fontFamily=Helvetica;fontSize=11;fontColor=default;endArrow=none;endFill=0;startSize=6;endSize=6;fillColor=#000000;startArrow=oval;startFill=0;" parent="1" target="1472" edge="1">
                    <mxGeometry relative="1" as="geometry">
                        <mxPoint x="-1559.4749802371539" y="-1152.78" as="targetPoint"/>
                        <mxPoint x="-1564.5499999999997" y="-1183.55" as="sourcePoint"/>
                    </mxGeometry>
                </mxCell>
                <mxCell id="1476" value="titolo" style="edgeLabel;html=1;align=center;verticalAlign=middle;resizable=0;points=[];fontSize=11;fontFamily=Helvetica;fontColor=default;" parent="1475" vertex="1" connectable="0">
                    <mxGeometry x="-0.2572" y="1" relative="1" as="geometry">
                        <mxPoint x="-26" y="-16" as="offset"/>
                    </mxGeometry>
                </mxCell>
                <mxCell id="1477" style="edgeStyle=none;shape=connector;rounded=1;fillStyle=auto;html=1;labelBackgroundColor=default;strokeColor=default;strokeWidth=1;fontFamily=Helvetica;fontSize=11;fontColor=default;endArrow=none;endFill=0;startSize=6;endSize=6;fillColor=#000000;startArrow=oval;startFill=1;" parent="1" edge="1">
                    <mxGeometry relative="1" as="geometry">
                        <mxPoint x="-1550" y="-1173" as="targetPoint"/>
                        <mxPoint x="-1454.5499999999997" y="-1132.55" as="sourcePoint"/>
                        <Array as="points">
                            <mxPoint x="-1454.5499999999997" y="-1172.55"/>
                        </Array>
                    </mxGeometry>
                </mxCell>
                <mxCell id="1478" style="edgeStyle=none;shape=connector;rounded=1;fillStyle=auto;html=1;labelBackgroundColor=default;strokeColor=default;strokeWidth=1;fontFamily=Helvetica;fontSize=11;fontColor=default;endArrow=none;endFill=0;startSize=6;endSize=6;fillColor=#000000;startArrow=oval;startFill=0;" parent="1" target="1472" edge="1">
                    <mxGeometry relative="1" as="geometry">
                        <mxPoint x="-1492.6472168763876" y="-1152.7799999999997" as="targetPoint"/>
                        <mxPoint x="-1464.5499999999997" y="-1103.55" as="sourcePoint"/>
                    </mxGeometry>
                </mxCell>
                <mxCell id="1479" value="premium" style="edgeLabel;html=1;align=center;verticalAlign=middle;resizable=0;points=[];fontSize=11;fontFamily=Helvetica;fontColor=default;" parent="1478" vertex="1" connectable="0">
                    <mxGeometry x="-0.2572" y="1" relative="1" as="geometry">
                        <mxPoint x="45" y="7" as="offset"/>
                    </mxGeometry>
                </mxCell>
                <mxCell id="1480" value="rinnovo" style="rhombus;whiteSpace=wrap;html=1;" parent="1" vertex="1">
                    <mxGeometry x="-1569.76" y="-1339.7499999999998" width="80" height="40" as="geometry"/>
                </mxCell>
                <mxCell id="1481" value="(1, 1)" style="edgeStyle=none;jumpStyle=arc;html=1;exitX=1;exitY=0.5;exitDx=0;exitDy=0;entryX=0;entryY=0.5;entryDx=0;entryDy=0;startArrow=none;startFill=0;endArrow=none;endFill=0;" parent="1" source="1480" target="1482" edge="1">
                    <mxGeometry x="-0.4156" y="11" relative="1" as="geometry">
                        <mxPoint as="offset"/>
                        <mxPoint x="-1325.7800000000002" y="-1260.0399999999995" as="sourcePoint"/>
                    </mxGeometry>
                </mxCell>
                <mxCell id="1482" value="HOSTING" style="whiteSpace=wrap;html=1;" parent="1" vertex="1">
                    <mxGeometry x="-1419.12" y="-1339.7499999999998" width="80" height="40" as="geometry"/>
                </mxCell>
                <mxCell id="1483" style="edgeStyle=none;shape=connector;rounded=1;fillStyle=auto;html=1;labelBackgroundColor=default;strokeColor=default;strokeWidth=1;fontFamily=Helvetica;fontSize=11;fontColor=default;endArrow=none;endFill=0;startSize=6;endSize=6;fillColor=#000000;startArrow=oval;startFill=0;" parent="1" target="1482" edge="1">
                    <mxGeometry relative="1" as="geometry">
                        <mxPoint x="-1360.12" y="-1320.0149999999999" as="targetPoint"/>
                        <mxPoint x="-1320.12" y="-1320.2799999999997" as="sourcePoint"/>
                    </mxGeometry>
                </mxCell>
                <mxCell id="1484" value="timestamp" style="edgeLabel;html=1;align=center;verticalAlign=middle;resizable=0;points=[];fontSize=11;fontFamily=Helvetica;fontColor=default;" parent="1483" vertex="1" connectable="0">
                    <mxGeometry x="-0.2572" y="1" relative="1" as="geometry">
                        <mxPoint x="41" y="-1" as="offset"/>
                    </mxGeometry>
                </mxCell>
                <mxCell id="1485" style="edgeStyle=none;shape=connector;rounded=1;fillStyle=auto;html=1;labelBackgroundColor=default;strokeColor=default;strokeWidth=1;fontFamily=Helvetica;fontSize=11;fontColor=default;endArrow=none;endFill=0;startSize=6;endSize=6;fillColor=#000000;startArrow=oval;startFill=1;" parent="1" edge="1">
                    <mxGeometry relative="1" as="geometry">
                        <mxPoint x="-1430" y="-1310" as="targetPoint"/>
                        <mxPoint x="-1330.12" y="-1310.2799999999997" as="sourcePoint"/>
                        <Array as="points">
                            <mxPoint x="-1330.12" y="-1350.2799999999997"/>
                            <mxPoint x="-1430" y="-1350"/>
                        </Array>
                    </mxGeometry>
                </mxCell>
                <mxCell id="1486" style="edgeStyle=none;shape=connector;rounded=1;fillStyle=auto;html=1;labelBackgroundColor=default;strokeColor=default;strokeWidth=1;fontFamily=Helvetica;fontSize=11;fontColor=default;endArrow=none;endFill=0;startSize=6;endSize=6;fillColor=#000000;startArrow=oval;startFill=0;" parent="1" target="1482" edge="1">
                    <mxGeometry relative="1" as="geometry">
                        <mxPoint x="-1329.12" y="-1310.109322033898" as="targetPoint"/>
                        <mxPoint x="-1419.12" y="-1280.2799999999997" as="sourcePoint"/>
                    </mxGeometry>
                </mxCell>
                <mxCell id="1487" value="pagato" style="edgeLabel;html=1;align=center;verticalAlign=middle;resizable=0;points=[];fontSize=11;fontFamily=Helvetica;fontColor=default;" parent="1486" vertex="1" connectable="0">
                    <mxGeometry x="-0.2572" y="1" relative="1" as="geometry">
                        <mxPoint x="1" y="19" as="offset"/>
                    </mxGeometry>
                </mxCell>
                <mxCell id="1488" style="edgeStyle=none;shape=connector;rounded=1;fillStyle=auto;html=1;labelBackgroundColor=default;strokeColor=default;strokeWidth=1;fontFamily=Helvetica;fontSize=11;fontColor=default;endArrow=none;endFill=0;startSize=6;endSize=6;fillColor=#000000;startArrow=oval;startFill=0;" parent="1" target="1482" edge="1">
                    <mxGeometry relative="1" as="geometry">
                        <mxPoint x="-1379.254279199392" y="-1289.7499999999998" as="targetPoint"/>
                        <mxPoint x="-1339.12" y="-1280.2799999999997" as="sourcePoint"/>
                    </mxGeometry>
                </mxCell>
                <mxCell id="1489" value="corrispettivo" style="edgeLabel;html=1;align=center;verticalAlign=middle;resizable=0;points=[];fontSize=11;fontFamily=Helvetica;fontColor=default;" parent="1488" vertex="1" connectable="0">
                    <mxGeometry x="-0.2572" y="1" relative="1" as="geometry">
                        <mxPoint x="8" y="19" as="offset"/>
                    </mxGeometry>
                </mxCell>
                <mxCell id="1495" value="" style="edgeStyle=none;shape=connector;rounded=1;fillStyle=auto;html=1;labelBackgroundColor=default;strokeColor=default;strokeWidth=1;fontFamily=Helvetica;fontSize=11;fontColor=default;endArrow=none;startSize=6;endSize=6;fillColor=#000000;entryX=0.5;entryY=0;entryDx=0;entryDy=0;exitX=0.5;exitY=1;exitDx=0;exitDy=0;" parent="1" target="1497" edge="1">
                    <mxGeometry relative="1" as="geometry">
                        <mxPoint x="-1919.9" y="-1120.28" as="sourcePoint"/>
                        <mxPoint x="-1918.5499999999997" y="-1060.28" as="targetPoint"/>
                    </mxGeometry>
                </mxCell>
                <mxCell id="1496" value="(0, N)" style="edgeLabel;html=1;align=center;verticalAlign=middle;resizable=0;points=[];fontSize=11;fontFamily=Helvetica;fontColor=default;" parent="1495" vertex="1" connectable="0">
                    <mxGeometry x="-0.3032" relative="1" as="geometry">
                        <mxPoint x="-20" y="16" as="offset"/>
                    </mxGeometry>
                </mxCell>
                <mxCell id="1530" value="(1, 1)" style="edgeStyle=none;html=1;endArrow=none;endFill=0;" parent="1" source="1497" edge="1">
                    <mxGeometry x="-0.4777" y="20" relative="1" as="geometry">
                        <mxPoint as="offset"/>
                        <mxPoint x="-1920.1175814708454" y="-1000.4299999999998" as="targetPoint"/>
                    </mxGeometry>
                </mxCell>
                <mxCell id="1497" value="contenitore" style="rhombus;whiteSpace=wrap;html=1;" parent="1" vertex="1">
                    <mxGeometry x="-1969.9" y="-1080.52" width="100" height="40" as="geometry"/>
                </mxCell>
                <mxCell id="1501" value="(0, N)" style="edgeLabel;html=1;align=center;verticalAlign=middle;resizable=0;points=[];fontSize=11;fontFamily=Helvetica;fontColor=default;" parent="1" vertex="1" connectable="0">
                    <mxGeometry x="-1990.3586384418963" y="-1129.9236236356749" as="geometry"/>
                </mxCell>
                <mxCell id="1502" value="" style="edgeStyle=none;shape=connector;rounded=1;fillStyle=auto;html=1;labelBackgroundColor=default;strokeColor=default;strokeWidth=1;fontFamily=Helvetica;fontSize=11;fontColor=default;endArrow=none;endFill=0;startSize=6;endSize=6;fillColor=#000000;exitX=0.5;exitY=1;exitDx=0;exitDy=0;" parent="1" source="1504" target="1505" edge="1">
                    <mxGeometry relative="1" as="geometry"/>
                </mxCell>
                <mxCell id="1503" value="(1, 1)" style="edgeLabel;html=1;align=center;verticalAlign=middle;resizable=0;points=[];fontSize=11;fontFamily=Helvetica;fontColor=default;" parent="1502" vertex="1" connectable="0">
                    <mxGeometry x="0.4262" y="1" relative="1" as="geometry">
                        <mxPoint x="19" y="-8" as="offset"/>
                    </mxGeometry>
                </mxCell>
                <mxCell id="1517" value="" style="edgeStyle=none;html=1;endArrow=none;endFill=0;" parent="1" source="1504" target="1413" edge="1">
                    <mxGeometry relative="1" as="geometry"/>
                </mxCell>
                <mxCell id="1504" value="&lt;font style=&quot;font-size: 11px;&quot;&gt;associazione&lt;sub style=&quot;&quot;&gt;(LS-C)&lt;/sub&gt;&lt;/font&gt;" style="rhombus;whiteSpace=wrap;html=1;" parent="1" vertex="1">
                    <mxGeometry x="-2130" y="-1160.28" width="140" height="40" as="geometry"/>
                </mxCell>
                <mxCell id="1505" value="LINK&lt;br&gt;SOCIAL" style="rounded=0;whiteSpace=wrap;html=1;" parent="1" vertex="1">
                    <mxGeometry x="-2100.0099999999998" y="-1081.51" width="80" height="40" as="geometry"/>
                </mxCell>
                <mxCell id="1506" value="" style="endArrow=oval;html=1;fillStyle=auto;strokeWidth=1;startSize=6;endSize=6;fillColor=#000000;startArrow=none;startFill=0;endFill=0;" parent="1" source="1505" edge="1">
                    <mxGeometry width="50" height="50" relative="1" as="geometry">
                        <mxPoint x="-2040.01" y="-1061.51" as="sourcePoint"/>
                        <mxPoint x="-2059.45" y="-1021.27" as="targetPoint"/>
                    </mxGeometry>
                </mxCell>
                <mxCell id="1507" value="link" style="edgeLabel;html=1;align=center;verticalAlign=middle;resizable=0;points=[];" parent="1506" vertex="1" connectable="0">
                    <mxGeometry x="0.4791" y="1" relative="1" as="geometry">
                        <mxPoint x="-1" y="15" as="offset"/>
                    </mxGeometry>
                </mxCell>
                <mxCell id="1516" value="" style="endArrow=oval;html=1;fillStyle=auto;strokeWidth=1;startSize=6;endSize=6;fillColor=#000000;startArrow=none;startFill=0;endFill=1;jumpStyle=none;" parent="1" edge="1">
                    <mxGeometry width="50" height="50" relative="1" as="geometry">
                        <mxPoint x="-2010" y="-1050" as="sourcePoint"/>
                        <mxPoint x="-2070" y="-1090" as="targetPoint"/>
                        <Array as="points">
                            <mxPoint x="-2010" y="-1090"/>
                        </Array>
                    </mxGeometry>
                </mxCell>
                <mxCell id="1518" value="" style="endArrow=oval;html=1;fillStyle=auto;strokeWidth=1;startSize=6;endSize=6;fillColor=#000000;startArrow=none;startFill=0;endFill=0;" parent="1" source="1505" edge="1">
                    <mxGeometry width="50" height="50" relative="1" as="geometry">
                        <mxPoint x="-2049.731669980119" y="-1031.51" as="sourcePoint"/>
                        <mxPoint x="-2000" y="-1062" as="targetPoint"/>
                    </mxGeometry>
                </mxCell>
                <mxCell id="1519" value="social" style="edgeLabel;html=1;align=center;verticalAlign=middle;resizable=0;points=[];" parent="1518" vertex="1" connectable="0">
                    <mxGeometry x="0.4791" y="1" relative="1" as="geometry">
                        <mxPoint x="15" y="13" as="offset"/>
                    </mxGeometry>
                </mxCell>
                <mxCell id="1520" value="timestamp" style="endArrow=oval;html=1;fillStyle=auto;strokeWidth=1;startSize=6;endSize=6;fillColor=#000000;startArrow=none;startFill=0;endFill=0;strokeColor=#000000;" parent="1" edge="1">
                    <mxGeometry x="1" y="40" width="50" height="50" relative="1" as="geometry">
                        <mxPoint x="-1319.3600000000001" y="-1526.44" as="sourcePoint"/>
                        <mxPoint x="-1299.3600000000001" y="-1526.44" as="targetPoint"/>
                        <mxPoint x="40" y="40" as="offset"/>
                    </mxGeometry>
                </mxCell>
                <mxCell id="1521" value="" style="endArrow=oval;html=1;fillStyle=auto;strokeWidth=1;startSize=6;endSize=6;fillColor=#000000;startArrow=none;startFill=0;endFill=0;" parent="1" source="1413" edge="1">
                    <mxGeometry width="50" height="50" relative="1" as="geometry">
                        <mxPoint x="-1610.5449999999998" y="-1000" as="sourcePoint"/>
                        <mxPoint x="-1841" y="-1133" as="targetPoint"/>
                    </mxGeometry>
                </mxCell>
                <mxCell id="1522" value="immagine&lt;br&gt;profilo" style="edgeLabel;html=1;align=center;verticalAlign=middle;resizable=0;points=[];" parent="1521" vertex="1" connectable="0">
                    <mxGeometry x="0.4791" y="1" relative="1" as="geometry">
                        <mxPoint x="41" y="8" as="offset"/>
                    </mxGeometry>
                </mxCell>
                <mxCell id="1545" style="edgeStyle=none;html=1;exitX=1;exitY=0.25;exitDx=0;exitDy=0;endArrow=none;endFill=0;entryX=0.5;entryY=1;entryDx=0;entryDy=0;" parent="1" target="1534" edge="1">
                    <mxGeometry relative="1" as="geometry">
                        <mxPoint x="-1780" y="-1020" as="targetPoint"/>
                        <Array as="points">
                            <mxPoint x="-1820" y="-990"/>
                            <mxPoint x="-1820" y="-1020"/>
                            <mxPoint x="-1780" y="-1020"/>
                        </Array>
                        <mxPoint x="-1860.19" y="-990.4299999999998" as="sourcePoint"/>
                    </mxGeometry>
                </mxCell>
                <mxCell id="1525" value="" style="endArrow=oval;html=1;fillStyle=auto;strokeWidth=1;startSize=6;endSize=6;fillColor=#000000;startArrow=none;startFill=0;endFill=0;" parent="1" edge="1">
                    <mxGeometry width="50" height="50" relative="1" as="geometry">
                        <mxPoint x="-1928.9020835405272" y="-1000.4299999999998" as="sourcePoint"/>
                        <mxPoint x="-1937.71" y="-1020.6499999999999" as="targetPoint"/>
                    </mxGeometry>
                </mxCell>
                <mxCell id="1526" value="titolo" style="edgeLabel;html=1;align=center;verticalAlign=middle;resizable=0;points=[];" parent="1525" vertex="1" connectable="0">
                    <mxGeometry x="0.4791" y="1" relative="1" as="geometry">
                        <mxPoint x="-21" y="-10" as="offset"/>
                    </mxGeometry>
                </mxCell>
                <mxCell id="1529" value="" style="endArrow=oval;html=1;fillStyle=auto;strokeWidth=1;startSize=6;endSize=6;fillColor=#000000;startArrow=none;startFill=0;endFill=1;" parent="1" edge="1">
                    <mxGeometry width="50" height="50" relative="1" as="geometry">
                        <mxPoint x="-1847.71" y="-980.65" as="sourcePoint"/>
                        <mxPoint x="-1947.71" y="-1010.65" as="targetPoint"/>
                        <Array as="points">
                            <mxPoint x="-1847.71" y="-1010.65"/>
                        </Array>
                    </mxGeometry>
                </mxCell>
                <mxCell id="1531" value="" style="edgeStyle=none;shape=connector;rounded=1;fillStyle=auto;html=1;labelBackgroundColor=default;strokeColor=default;strokeWidth=1;fontFamily=Helvetica;fontSize=11;fontColor=default;endArrow=none;endFill=0;startSize=6;endSize=6;fillColor=#000000;exitX=1;exitY=0.5;exitDx=0;exitDy=0;entryX=0;entryY=0.5;entryDx=0;entryDy=0;" parent="1" source="1534" target="1535" edge="1">
                    <mxGeometry relative="1" as="geometry"/>
                </mxCell>
                <mxCell id="1532" value="(0, N)" style="edgeLabel;html=1;align=center;verticalAlign=middle;resizable=0;points=[];fontSize=11;fontFamily=Helvetica;fontColor=default;" parent="1531" vertex="1" connectable="0">
                    <mxGeometry x="0.4262" y="1" relative="1" as="geometry">
                        <mxPoint x="-27" y="-12" as="offset"/>
                    </mxGeometry>
                </mxCell>
                <mxCell id="1533" value="(1, 1)" style="edgeLabel;html=1;align=center;verticalAlign=middle;resizable=0;points=[];" parent="1" vertex="1" connectable="0">
                    <mxGeometry x="-1798.4963903913754" y="-1030.00082470871" as="geometry"/>
                </mxCell>
                <mxCell id="1534" value="appartenenza" style="rhombus;whiteSpace=wrap;html=1;" parent="1" vertex="1">
                    <mxGeometry x="-1840.36" y="-1081.51" width="120" height="40" as="geometry"/>
                </mxCell>
                <mxCell id="1535" value="CATEGORIA" style="rounded=0;whiteSpace=wrap;html=1;" parent="1" vertex="1">
                    <mxGeometry x="-1680" y="-1081.51" width="80" height="40" as="geometry"/>
                </mxCell>
                <mxCell id="1536" value="" style="endArrow=oval;html=1;fillStyle=auto;strokeWidth=1;startSize=6;endSize=6;fillColor=#000000;startArrow=none;startFill=0;endFill=1;" parent="1" source="1535" edge="1">
                    <mxGeometry width="50" height="50" relative="1" as="geometry">
                        <mxPoint x="-1927.5" y="-1060.92" as="sourcePoint"/>
                        <mxPoint x="-1580" y="-1060" as="targetPoint"/>
                    </mxGeometry>
                </mxCell>
                <mxCell id="1537" value="nome" style="edgeLabel;html=1;align=center;verticalAlign=middle;resizable=0;points=[];" parent="1536" vertex="1" connectable="0">
                    <mxGeometry x="0.4791" y="1" relative="1" as="geometry">
                        <mxPoint x="29" y="1" as="offset"/>
                    </mxGeometry>
                </mxCell>
                <mxCell id="1591" style="edgeStyle=none;html=1;exitX=0.5;exitY=1;exitDx=0;exitDy=0;entryX=0;entryY=0.75;entryDx=0;entryDy=0;endArrow=none;endFill=0;" parent="1" source="1593" edge="1">
                    <mxGeometry relative="1" as="geometry">
                        <mxPoint x="-1980.19" y="-970.4299999999998" as="targetPoint"/>
                        <Array as="points">
                            <mxPoint x="-2200" y="-970"/>
                        </Array>
                    </mxGeometry>
                </mxCell>
                <mxCell id="1592" value="(0, N)" style="edgeLabel;html=1;align=center;verticalAlign=middle;resizable=0;points=[];fontSize=11;fontFamily=Helvetica;fontColor=default;" parent="1591" vertex="1" connectable="0">
                    <mxGeometry x="-0.1866" y="4" relative="1" as="geometry">
                        <mxPoint x="-27" y="-56" as="offset"/>
                    </mxGeometry>
                </mxCell>
                <mxCell id="1595" style="edgeStyle=none;html=1;exitX=0.5;exitY=0;exitDx=0;exitDy=0;endArrow=none;endFill=0;entryX=0;entryY=0.5;entryDx=0;entryDy=0;jumpStyle=arc;" parent="1" source="1593" target="1891" edge="1">
                    <mxGeometry relative="1" as="geometry">
                        <Array as="points">
                            <mxPoint x="-2200" y="-1150"/>
                            <mxPoint x="-2240" y="-1150"/>
                            <mxPoint x="-2240" y="-1548"/>
                        </Array>
                        <mxPoint x="-1960.6100000000001" y="-1530" as="targetPoint"/>
                    </mxGeometry>
                </mxCell>
                <mxCell id="1593" value="visita" style="rhombus;whiteSpace=wrap;html=1;" parent="1" vertex="1">
                    <mxGeometry x="-2239.9999999999995" y="-1080.52" width="80" height="40" as="geometry"/>
                </mxCell>
                <mxCell id="1594" value="(0, N)" style="edgeLabel;html=1;align=center;verticalAlign=middle;resizable=0;points=[];fontSize=11;fontFamily=Helvetica;fontColor=default;" parent="1" vertex="1" connectable="0">
                    <mxGeometry x="-2180.2992565407762" y="-1090.2332698239416" as="geometry"/>
                </mxCell>
                <mxCell id="1630" style="edgeStyle=none;html=1;endArrow=none;endFill=0;jumpStyle=arc;entryX=0.004;entryY=0.385;entryDx=0;entryDy=0;entryPerimeter=0;" parent="1" source="1629" target="1897" edge="1">
                    <mxGeometry relative="1" as="geometry">
                        <mxPoint x="-2310" y="-1150" as="sourcePoint"/>
                        <Array as="points">
                            <mxPoint x="-2320" y="-1380"/>
                            <mxPoint x="-2000" y="-1380"/>
                        </Array>
                        <mxPoint x="-1980" y="-1380" as="targetPoint"/>
                    </mxGeometry>
                </mxCell>
                <mxCell id="1631" style="edgeStyle=none;html=1;exitX=0.5;exitY=1;exitDx=0;exitDy=0;endArrow=none;endFill=0;" parent="1" source="1629" edge="1">
                    <mxGeometry relative="1" as="geometry">
                        <mxPoint x="-2319.862766078543" y="-919.96" as="targetPoint"/>
                        <Array as="points"/>
                    </mxGeometry>
                </mxCell>
                <mxCell id="1629" value="gestione&lt;sub&gt;(I-R)&lt;/sub&gt;" style="rhombus;whiteSpace=wrap;html=1;" parent="1" vertex="1">
                    <mxGeometry x="-2370" y="-1080.52" width="100" height="40" as="geometry"/>
                </mxCell>
                <mxCell id="1632" value="(0, N)" style="edgeLabel;html=1;align=center;verticalAlign=middle;resizable=0;points=[];fontSize=11;fontFamily=Helvetica;fontColor=default;" parent="1" vertex="1" connectable="0">
                    <mxGeometry x="-2170.2992565407762" y="-1080.2332698239416" as="geometry">
                        <mxPoint x="-134" y="-12" as="offset"/>
                    </mxGeometry>
                </mxCell>
                <mxCell id="1633" value="(1, 1)" style="edgeLabel;html=1;align=center;verticalAlign=middle;resizable=0;points=[];fontSize=11;fontFamily=Helvetica;fontColor=default;" parent="1" vertex="1" connectable="0">
                    <mxGeometry x="-2169.9999999999995" y="-1020.0494117647056" as="geometry">
                        <mxPoint x="-132" y="-11" as="offset"/>
                    </mxGeometry>
                </mxCell>
                <mxCell id="1647" value="(0, N)" style="edgeLabel;html=1;align=center;verticalAlign=middle;resizable=0;points=[];" parent="1" connectable="0" vertex="1">
                    <mxGeometry x="-2160.0005223526196" y="-874.038892313264" as="geometry"/>
                </mxCell>
                <mxCell id="1648" value="&lt;span style=&quot;color: rgb(0, 0, 0); font-family: Helvetica; font-size: 11px; font-style: normal; font-variant-ligatures: normal; font-variant-caps: normal; font-weight: 400; letter-spacing: normal; orphans: 2; text-align: center; text-indent: 0px; text-transform: none; widows: 2; word-spacing: 0px; -webkit-text-stroke-width: 0px; background-color: rgb(255, 255, 255); text-decoration-thickness: initial; text-decoration-style: initial; text-decoration-color: initial; float: none; display: inline !important;&quot;&gt;(1, 1)&lt;/span&gt;" style="edgeLabel;html=1;align=center;verticalAlign=middle;resizable=0;points=[];fontSize=11;fontFamily=Helvetica;fontColor=default;" parent="1" connectable="0" vertex="1">
                    <mxGeometry x="-2220.3014869339017" y="-910.3862627005637" as="geometry">
                        <mxPoint x="-5" y="-1" as="offset"/>
                    </mxGeometry>
                </mxCell>
                <mxCell id="1650" style="edgeStyle=none;html=1;exitX=0;exitY=0.5;exitDx=0;exitDy=0;endArrow=none;endFill=0;" parent="1" source="1649" edge="1">
                    <mxGeometry relative="1" as="geometry">
                        <mxPoint x="-2259.84" y="-900.2191922845086" as="targetPoint"/>
                    </mxGeometry>
                </mxCell>
                <mxCell id="1651" style="edgeStyle=none;html=1;endArrow=none;endFill=0;" parent="1" source="1649" edge="1">
                    <mxGeometry relative="1" as="geometry">
                        <Array as="points">
                            <mxPoint x="-2180" y="-860"/>
                            <mxPoint x="-2180" y="-820"/>
                            <mxPoint x="-2180" y="-690"/>
                        </Array>
                        <mxPoint x="-2170" y="-690" as="targetPoint"/>
                    </mxGeometry>
                </mxCell>
                <mxCell id="1649" value="invio" style="rhombus;whiteSpace=wrap;html=1;" parent="1" vertex="1">
                    <mxGeometry x="-2220.3" y="-920.3899999999999" width="80" height="40" as="geometry"/>
                </mxCell>
                <mxCell id="1666" value="" style="endArrow=oval;html=1;fillStyle=auto;strokeWidth=1;startSize=6;endSize=6;fillColor=#000000;startArrow=none;startFill=0;endFill=0;" parent="1" source="1472" edge="1">
                    <mxGeometry width="50" height="50" relative="1" as="geometry">
                        <mxPoint x="-2024.3269403907989" y="-872.9799999999998" as="sourcePoint"/>
                        <mxPoint x="-1604.5499999999997" y="-1102.55" as="targetPoint"/>
                    </mxGeometry>
                </mxCell>
                <mxCell id="1667" value="LIS" style="edgeLabel;html=1;align=center;verticalAlign=middle;resizable=0;points=[];" parent="1666" vertex="1" connectable="0">
                    <mxGeometry x="0.4791" y="1" relative="1" as="geometry">
                        <mxPoint x="-25" y="3" as="offset"/>
                    </mxGeometry>
                </mxCell>
                <mxCell id="1686" style="edgeStyle=none;html=1;exitX=0.5;exitY=0;exitDx=0;exitDy=0;entryX=0;entryY=0.5;entryDx=0;entryDy=0;endArrow=none;endFill=0;jumpStyle=arc;" parent="1" source="1668" target="1670" edge="1">
                    <mxGeometry relative="1" as="geometry">
                        <mxPoint x="-2076.2999999999997" y="-1500.41" as="targetPoint"/>
                        <Array as="points">
                            <mxPoint x="-2144.41" y="-1499.51"/>
                        </Array>
                    </mxGeometry>
                </mxCell>
                <mxCell id="1668" value="MESSAGGIO" style="whiteSpace=wrap;html=1;" parent="1" vertex="1">
                    <mxGeometry x="-2184.83" y="-1480.4099999999999" width="80" height="40" as="geometry"/>
                </mxCell>
                <mxCell id="1685" style="edgeStyle=none;html=1;exitX=0;exitY=0.5;exitDx=0;exitDy=0;entryX=0.5;entryY=1;entryDx=0;entryDy=0;endArrow=none;endFill=0;jumpStyle=arc;" parent="1" source="1669" target="1668" edge="1">
                    <mxGeometry relative="1" as="geometry">
                        <Array as="points">
                            <mxPoint x="-2144.41" y="-1421.51"/>
                        </Array>
                    </mxGeometry>
                </mxCell>
                <mxCell id="1669" value="&lt;font style=&quot;font-size: 10px;&quot;&gt;mittente&lt;sub style=&quot;&quot;&gt;(M-R)&lt;/sub&gt;&lt;/font&gt;" style="rhombus;whiteSpace=wrap;html=1;" parent="1" vertex="1">
                    <mxGeometry x="-2064.42" y="-1441.51" width="90.01" height="40" as="geometry"/>
                </mxCell>
                <mxCell id="1687" style="edgeStyle=none;html=1;exitX=1;exitY=0.5;exitDx=0;exitDy=0;endArrow=none;endFill=0;jumpStyle=arc;entryX=0.005;entryY=0.12;entryDx=0;entryDy=0;entryPerimeter=0;" parent="1" source="1670" target="1897" edge="1">
                    <mxGeometry relative="1" as="geometry">
                        <Array as="points">
                            <mxPoint x="-2070" y="-1500"/>
                            <mxPoint x="-1920" y="-1500"/>
                            <mxPoint x="-1920" y="-1440"/>
                            <mxPoint x="-1910" y="-1420"/>
                        </Array>
                        <mxPoint x="-1980" y="-1460" as="targetPoint"/>
                    </mxGeometry>
                </mxCell>
                <mxCell id="1670" value="&lt;font style=&quot;font-size: 10px;&quot;&gt;destinatario&lt;sub style=&quot;&quot;&gt;(M-R)&lt;/sub&gt;&lt;/font&gt;" style="rhombus;whiteSpace=wrap;html=1;" parent="1" vertex="1">
                    <mxGeometry x="-2073.73" y="-1520" width="109.32" height="40" as="geometry"/>
                </mxCell>
                <mxCell id="1676" value="(1,1)" style="edgeLabel;html=1;align=center;verticalAlign=middle;resizable=0;points=[];fontSize=11;fontFamily=Helvetica;fontColor=default;" parent="1" vertex="1" connectable="0">
                    <mxGeometry x="-2104.83355666579" y="-1514.5875837496715" as="geometry">
                        <mxPoint x="6" y="3" as="offset"/>
                    </mxGeometry>
                </mxCell>
                <mxCell id="1677" style="edgeStyle=none;shape=connector;rounded=1;fillStyle=auto;html=1;labelBackgroundColor=default;strokeColor=default;strokeWidth=1;fontFamily=Helvetica;fontSize=11;fontColor=default;endArrow=none;endFill=0;startSize=6;endSize=6;fillColor=#000000;startArrow=oval;startFill=0;" parent="1" target="1668" edge="1">
                    <mxGeometry relative="1" as="geometry">
                        <mxPoint x="-1967.4777777777779" y="-1560.47" as="targetPoint"/>
                        <mxPoint x="-2186.99" y="-1420.41" as="sourcePoint"/>
                    </mxGeometry>
                </mxCell>
                <mxCell id="1678" value="timestamp" style="edgeLabel;html=1;align=center;verticalAlign=middle;resizable=0;points=[];fontSize=11;fontFamily=Helvetica;fontColor=default;" parent="1677" vertex="1" connectable="0">
                    <mxGeometry x="-0.2572" y="1" relative="1" as="geometry">
                        <mxPoint x="-6" y="27" as="offset"/>
                    </mxGeometry>
                </mxCell>
                <mxCell id="1680" value="" style="endArrow=oval;html=1;fillStyle=auto;strokeWidth=1;startSize=6;endSize=6;fillColor=#000000;startArrow=none;startFill=0;endFill=1;jumpStyle=none;" parent="1" edge="1">
                    <mxGeometry width="50" height="50" relative="1" as="geometry">
                        <mxPoint x="-2136.99" y="-1430.41" as="sourcePoint"/>
                        <mxPoint x="-2126.99" y="-1430.41" as="targetPoint"/>
                        <Array as="points">
                            <mxPoint x="-2196.99" y="-1430.41"/>
                            <mxPoint x="-2136.99" y="-1430.41"/>
                        </Array>
                    </mxGeometry>
                </mxCell>
                <mxCell id="1681" style="edgeStyle=none;shape=connector;rounded=1;fillStyle=auto;html=1;labelBackgroundColor=default;strokeColor=default;strokeWidth=1;fontFamily=Helvetica;fontSize=11;fontColor=default;endArrow=none;endFill=0;startSize=6;endSize=6;fillColor=#000000;startArrow=oval;startFill=0;" parent="1" target="1668" edge="1">
                    <mxGeometry relative="1" as="geometry">
                        <mxPoint x="-1961.7483553367645" y="-1577.0441776683822" as="targetPoint"/>
                        <mxPoint x="-2186.99" y="-1500.41" as="sourcePoint"/>
                    </mxGeometry>
                </mxCell>
                <mxCell id="1682" value="testo" style="edgeLabel;html=1;align=center;verticalAlign=middle;resizable=0;points=[];fontSize=11;fontFamily=Helvetica;fontColor=default;" parent="1681" vertex="1" connectable="0">
                    <mxGeometry x="-0.2572" y="1" relative="1" as="geometry">
                        <mxPoint x="-28" y="-7" as="offset"/>
                    </mxGeometry>
                </mxCell>
                <mxCell id="1684" value="(0,N)" style="edgeLabel;html=1;align=center;verticalAlign=middle;resizable=0;points=[];fontSize=11;fontFamily=Helvetica;fontColor=default;" parent="1" vertex="1" connectable="0">
                    <mxGeometry x="-1950.0035566657907" y="-1514.5875837496715" as="geometry">
                        <mxPoint x="6" y="3" as="offset"/>
                    </mxGeometry>
                </mxCell>
                <mxCell id="1688" value="(0,N)" style="edgeLabel;html=1;align=center;verticalAlign=middle;resizable=0;points=[];fontSize=11;fontFamily=Helvetica;fontColor=default;" parent="1" vertex="1" connectable="0">
                    <mxGeometry x="-1961.193556665791" y="-1433.5075837496715" as="geometry">
                        <mxPoint x="6" y="3" as="offset"/>
                    </mxGeometry>
                </mxCell>
                <mxCell id="1689" value="(1,1)" style="edgeLabel;html=1;align=center;verticalAlign=middle;resizable=0;points=[];fontSize=11;fontFamily=Helvetica;fontColor=default;" parent="1" vertex="1" connectable="0">
                    <mxGeometry x="-2073.423556665791" y="-1440.4075837496716" as="geometry">
                        <mxPoint x="6" y="3" as="offset"/>
                    </mxGeometry>
                </mxCell>
                <mxCell id="1691" style="edgeStyle=none;html=1;exitX=0.5;exitY=0;exitDx=0;exitDy=0;endArrow=none;endFill=0;jumpStyle=arc;entryX=0.002;entryY=0.6;entryDx=0;entryDy=0;entryPerimeter=0;" parent="1" source="1690" target="1897" edge="1">
                    <mxGeometry relative="1" as="geometry">
                        <Array as="points">
                            <mxPoint x="-2140" y="-1300"/>
                            <mxPoint x="-2140" y="-1340"/>
                            <mxPoint x="-2000" y="-1340"/>
                            <mxPoint x="-1990" y="-1340"/>
                            <mxPoint x="-1982" y="-1365"/>
                        </Array>
                        <mxPoint x="-1980" y="-1360" as="targetPoint"/>
                    </mxGeometry>
                </mxCell>
                <mxCell id="1694" value="(0, N)" style="edgeLabel;html=1;align=center;verticalAlign=middle;resizable=0;points=[];" parent="1691" vertex="1" connectable="0">
                    <mxGeometry x="-0.8392" y="-2" relative="1" as="geometry">
                        <mxPoint x="18" y="9" as="offset"/>
                    </mxGeometry>
                </mxCell>
                <mxCell id="1692" style="edgeStyle=none;jumpStyle=arc;html=1;exitX=0.5;exitY=1;exitDx=0;exitDy=0;entryX=0;entryY=0.25;entryDx=0;entryDy=0;endArrow=none;endFill=0;" parent="1" source="1690" edge="1">
                    <mxGeometry relative="1" as="geometry">
                        <Array as="points">
                            <mxPoint x="-2140" y="-990"/>
                        </Array>
                        <mxPoint x="-1980.19" y="-990.4299999999998" as="targetPoint"/>
                    </mxGeometry>
                </mxCell>
                <mxCell id="1693" value="(0, N)" style="edgeLabel;html=1;align=center;verticalAlign=middle;resizable=0;points=[];" parent="1692" vertex="1" connectable="0">
                    <mxGeometry x="-0.8996" relative="1" as="geometry">
                        <mxPoint x="20" y="-11" as="offset"/>
                    </mxGeometry>
                </mxCell>
                <mxCell id="1690" value="voto" style="rhombus;whiteSpace=wrap;html=1;" parent="1" vertex="1">
                    <mxGeometry x="-2180.0099999999998" y="-1280" width="80" height="40" as="geometry"/>
                </mxCell>
                <mxCell id="1695" value="" style="endArrow=oval;html=1;fillStyle=auto;strokeWidth=1;startSize=6;endSize=6;fillColor=#000000;startArrow=none;startFill=0;endFill=0;" parent="1" source="1690" edge="1">
                    <mxGeometry width="50" height="50" relative="1" as="geometry">
                        <mxPoint x="-2010.0099999999998" y="-1051.8366122312948" as="sourcePoint"/>
                        <mxPoint x="-2080" y="-1260" as="targetPoint"/>
                    </mxGeometry>
                </mxCell>
                <mxCell id="1696" value="likert" style="edgeLabel;html=1;align=center;verticalAlign=middle;resizable=0;points=[];" parent="1695" vertex="1" connectable="0">
                    <mxGeometry x="0.4791" y="1" relative="1" as="geometry">
                        <mxPoint x="15" y="13" as="offset"/>
                    </mxGeometry>
                </mxCell>
                <mxCell id="1699" value="&lt;font style=&quot;font-size: 10px;&quot;&gt;destinatario&lt;sub style=&quot;&quot;&gt;(P-D)&lt;/sub&gt;&lt;/font&gt;" style="rhombus;whiteSpace=wrap;html=1;strokeColor=#000000;" parent="1" vertex="1">
                    <mxGeometry x="-1539.3600000000001" y="-1507.3400000000001" width="110" height="40" as="geometry"/>
                </mxCell>
                <mxCell id="1714" value="" style="endArrow=none;html=1;strokeColor=#000000;strokeWidth=1;fontColor=#FF0000;" parent="1" edge="1">
                    <mxGeometry width="50" height="50" relative="1" as="geometry">
                        <mxPoint x="-2340.1399999999994" y="-929.69" as="sourcePoint"/>
                        <mxPoint x="-2246" y="-890" as="targetPoint"/>
                        <Array as="points">
                            <mxPoint x="-2246" y="-930"/>
                        </Array>
                    </mxGeometry>
                </mxCell>
                <mxCell id="1715" value="" style="shape=waypoint;fillStyle=solid;size=6;pointerEvents=1;points=[];fillColor=none;resizable=0;rotatable=0;perimeter=centerPerimeter;snapToPoint=1;strokeColor=#000000;fontColor=#FF0000;" parent="1" vertex="1">
                    <mxGeometry x="-2350" y="-939.92" width="20" height="20" as="geometry"/>
                </mxCell>
                <mxCell id="1731" value="&lt;font style=&quot;font-size: 10px;&quot;&gt;mittente&lt;sub style=&quot;&quot;&gt;(P-D)&lt;/sub&gt;&lt;/font&gt;" style="rhombus;whiteSpace=wrap;html=1;strokeColor=#000000;" parent="1" vertex="1">
                    <mxGeometry x="-1529.3600000000001" y="-1586.44" width="90" height="40" as="geometry"/>
                </mxCell>
                <mxCell id="1732" value="DONAZIONE" style="rounded=0;whiteSpace=wrap;html=1;strokeColor=#000000;" parent="1" vertex="1">
                    <mxGeometry x="-1399.3600000000001" y="-1546.44" width="80" height="40" as="geometry"/>
                </mxCell>
                <mxCell id="1733" value="" style="endArrow=none;html=1;strokeColor=#000000;" parent="1" edge="1">
                    <mxGeometry width="50" height="50" relative="1" as="geometry">
                        <mxPoint x="-1529.3600000000001" y="-1452.53" as="sourcePoint"/>
                        <mxPoint x="-1510.3600000000001" y="-1478.44" as="targetPoint"/>
                    </mxGeometry>
                </mxCell>
                <mxCell id="1734" value="" style="ellipse;whiteSpace=wrap;html=1;aspect=fixed;strokeColor=#000000;" parent="1" vertex="1">
                    <mxGeometry x="-1533.3600000000001" y="-1453.44" width="6" height="6" as="geometry"/>
                </mxCell>
                <mxCell id="1736" value="" style="endArrow=none;html=1;strokeColor=#000000;fontColor=#FF0000;edgeStyle=elbowEdgeStyle;entryX=0;entryY=0.5;entryDx=0;entryDy=0;" parent="1" target="1731" edge="1">
                    <mxGeometry width="50" height="50" relative="1" as="geometry">
                        <mxPoint x="-1610.0000000000002" y="-1536.44" as="sourcePoint"/>
                        <mxPoint x="-1560.0000000000002" y="-1586.44" as="targetPoint"/>
                    </mxGeometry>
                </mxCell>
                <mxCell id="1737" value="" style="endArrow=none;html=1;strokeColor=#000000;fontColor=#FF0000;edgeStyle=elbowEdgeStyle;entryX=0;entryY=0.5;entryDx=0;entryDy=0;" parent="1" target="1699" edge="1">
                    <mxGeometry width="50" height="50" relative="1" as="geometry">
                        <mxPoint x="-1610.0000000000002" y="-1519.47" as="sourcePoint"/>
                        <mxPoint x="-1569.0000000000002" y="-1483.56" as="targetPoint"/>
                        <Array as="points">
                            <mxPoint x="-1569.3600000000001" y="-1506.44"/>
                        </Array>
                    </mxGeometry>
                </mxCell>
                <mxCell id="1739" value="" style="endArrow=none;html=1;strokeColor=#000000;fontColor=#FF0000;entryX=0.5;entryY=1;entryDx=0;entryDy=0;exitX=1;exitY=0.5;exitDx=0;exitDy=0;" parent="1" source="1699" target="1732" edge="1">
                    <mxGeometry width="50" height="50" relative="1" as="geometry">
                        <mxPoint x="-1449.3600000000001" y="-1486.44" as="sourcePoint"/>
                        <mxPoint x="-1359.3600000000001" y="-1486.44" as="targetPoint"/>
                        <Array as="points">
                            <mxPoint x="-1359.3600000000001" y="-1487.44"/>
                        </Array>
                    </mxGeometry>
                </mxCell>
                <mxCell id="1741" value="" style="endArrow=none;html=1;strokeColor=#000000;fontColor=#FF0000;exitX=1;exitY=0.5;exitDx=0;exitDy=0;entryX=0.5;entryY=0;entryDx=0;entryDy=0;" parent="1" source="1731" target="1732" edge="1">
                    <mxGeometry width="50" height="50" relative="1" as="geometry">
                        <mxPoint x="-1399.3600000000001" y="-1516.44" as="sourcePoint"/>
                        <mxPoint x="-1349.3600000000001" y="-1566.44" as="targetPoint"/>
                        <Array as="points">
                            <mxPoint x="-1359.3600000000001" y="-1566.44"/>
                        </Array>
                    </mxGeometry>
                </mxCell>
                <mxCell id="1742" value="&lt;font color=&quot;#000000&quot;&gt;streamer&lt;/font&gt;" style="text;html=1;align=center;verticalAlign=middle;resizable=0;points=[];autosize=1;strokeColor=none;fillColor=none;fontColor=#FF0000;" parent="1" vertex="1">
                    <mxGeometry x="-1555.93" y="-1455.72" width="70" height="30" as="geometry"/>
                </mxCell>
                <mxCell id="1743" value="&lt;font color=&quot;#000000&quot;&gt;(0, N)&lt;/font&gt;" style="text;html=1;align=center;verticalAlign=middle;resizable=0;points=[];autosize=1;strokeColor=none;fillColor=none;fontColor=#FF0000;" parent="1" vertex="1">
                    <mxGeometry x="-1577.3600000000001" y="-1493.44" width="50" height="30" as="geometry"/>
                </mxCell>
                <mxCell id="1744" value="&lt;font color=&quot;#000000&quot;&gt;(0, N)&lt;/font&gt;" style="text;html=1;align=center;verticalAlign=middle;resizable=0;points=[];autosize=1;strokeColor=none;fillColor=none;fontColor=#FF0000;" parent="1" vertex="1">
                    <mxGeometry x="-1570.3600000000001" y="-1591.44" width="50" height="30" as="geometry"/>
                </mxCell>
                <mxCell id="1745" value="&lt;font color=&quot;#000000&quot;&gt;(1, 1)&lt;/font&gt;" style="text;html=1;align=center;verticalAlign=middle;resizable=0;points=[];autosize=1;strokeColor=none;fillColor=none;fontColor=#FF0000;" parent="1" vertex="1">
                    <mxGeometry x="-1449.3600000000001" y="-1591.44" width="50" height="30" as="geometry"/>
                </mxCell>
                <mxCell id="1746" value="&lt;font color=&quot;#000000&quot;&gt;(1, 1)&lt;/font&gt;" style="text;html=1;align=center;verticalAlign=middle;resizable=0;points=[];autosize=1;strokeColor=none;fillColor=none;fontColor=#FF0000;" parent="1" vertex="1">
                    <mxGeometry x="-1439.3600000000001" y="-1493.44" width="50" height="30" as="geometry"/>
                </mxCell>
                <mxCell id="1749" value="&lt;font style=&quot;font-size: 10px;&quot;&gt;(0,1)&lt;/font&gt;" style="text;html=1;align=center;verticalAlign=middle;resizable=0;points=[];autosize=1;strokeColor=none;fillColor=none;fontSize=11;" parent="1" vertex="1">
                    <mxGeometry x="-1885" y="-1185.19" width="39" height="25" as="geometry"/>
                </mxCell>
                <mxCell id="1750" value="&lt;font style=&quot;font-size: 10px;&quot;&gt;(0,1)&lt;/font&gt;" style="text;html=1;align=center;verticalAlign=middle;resizable=0;points=[];autosize=1;strokeColor=none;fillColor=none;fontSize=11;" parent="1" vertex="1">
                    <mxGeometry x="-1880.19" y="-1139" width="39" height="25" as="geometry"/>
                </mxCell>
                <mxCell id="1752" value="(0,1)" style="text;html=1;align=center;verticalAlign=middle;resizable=0;points=[];autosize=1;strokeColor=none;fillColor=none;fontSize=10;" parent="1" vertex="1">
                    <mxGeometry x="-1901.54" y="-1120.28" width="39" height="24" as="geometry"/>
                </mxCell>
                <mxCell id="1766" style="edgeStyle=none;shape=connector;rounded=1;fillStyle=auto;html=1;labelBackgroundColor=default;strokeColor=default;strokeWidth=1;fontFamily=Helvetica;fontSize=11;fontColor=default;endArrow=none;endFill=0;startSize=6;endSize=6;fillColor=#000000;startArrow=oval;startFill=1;" parent="1" edge="1">
                    <mxGeometry relative="1" as="geometry">
                        <mxPoint x="-1379.3600000000001" y="-1556.44" as="targetPoint"/>
                        <mxPoint x="-1309.3600000000001" y="-1516.44" as="sourcePoint"/>
                        <Array as="points">
                            <mxPoint x="-1309.3600000000001" y="-1556.44"/>
                        </Array>
                    </mxGeometry>
                </mxCell>
                <mxCell id="1767" value="" style="endArrow=oval;html=1;fillStyle=auto;strokeWidth=1;startSize=6;endSize=6;fillColor=#000000;startArrow=none;startFill=0;endFill=0;strokeColor=#000000;exitX=0;exitY=1;exitDx=0;exitDy=0;" parent="1" source="1593" edge="1">
                    <mxGeometry width="50" height="50" relative="1" as="geometry">
                        <mxPoint x="-2220.4204769412695" y="-1004.6799999999998" as="sourcePoint"/>
                        <mxPoint x="-2239" y="-1032" as="targetPoint"/>
                    </mxGeometry>
                </mxCell>
                <mxCell id="1769" value="&lt;font style=&quot;font-size: 11px;&quot;&gt;like&lt;/font&gt;" style="text;html=1;align=center;verticalAlign=middle;resizable=0;points=[];autosize=1;strokeColor=none;fillColor=none;" parent="1" vertex="1">
                    <mxGeometry x="-2270" y="-1040.24" width="40" height="30" as="geometry"/>
                </mxCell>
                <mxCell id="1770" value="INTERAZIONE" style="rounded=0;whiteSpace=wrap;html=1;" parent="1" vertex="1">
                    <mxGeometry x="-2375.41" y="-920.54" width="120" height="40" as="geometry"/>
                </mxCell>
                <mxCell id="1771" value="codice" style="edgeStyle=none;jumpStyle=arc;html=1;startArrow=none;startFill=0;endArrow=oval;endFill=1;" parent="1" source="1772" edge="1">
                    <mxGeometry x="1" y="30" relative="1" as="geometry">
                        <mxPoint x="-2312.5699999999997" y="-690.5799999999999" as="targetPoint"/>
                        <mxPoint x="-2275.41" y="-620.3199999999999" as="sourcePoint"/>
                        <mxPoint as="offset"/>
                    </mxGeometry>
                </mxCell>
                <mxCell id="1772" value="EMOJI" style="whiteSpace=wrap;html=1;rounded=0;" parent="1" vertex="1">
                    <mxGeometry x="-2353.02" y="-760.5799999999999" width="80" height="40" as="geometry"/>
                </mxCell>
                <mxCell id="1776" value="" style="endArrow=oval;html=1;fillStyle=auto;strokeWidth=1;startSize=6;endSize=6;fillColor=#000000;startArrow=none;startFill=0;endFill=0;exitX=0.168;exitY=1.019;exitDx=0;exitDy=0;exitPerimeter=0;" parent="1" source="1770" edge="1">
                    <mxGeometry width="50" height="50" relative="1" as="geometry">
                        <mxPoint x="-2015.69" y="-620.9999999999998" as="sourcePoint"/>
                        <mxPoint x="-2385.5699999999997" y="-850.5799999999999" as="targetPoint"/>
                    </mxGeometry>
                </mxCell>
                <mxCell id="1777" value="timestamp" style="edgeLabel;html=1;align=center;verticalAlign=middle;resizable=0;points=[];" parent="1776" connectable="0" vertex="1">
                    <mxGeometry x="0.4791" y="1" relative="1" as="geometry">
                        <mxPoint x="-46" y="5" as="offset"/>
                    </mxGeometry>
                </mxCell>
                <mxCell id="1778" value="(0, N)" style="edgeStyle=none;jumpStyle=arc;html=1;startArrow=none;startFill=0;endArrow=none;endFill=0;" parent="1" source="1781" edge="1">
                    <mxGeometry x="-0.4888" y="20" relative="1" as="geometry">
                        <mxPoint as="offset"/>
                        <mxPoint x="-2315.5699999999997" y="-760.5799999999999" as="targetPoint"/>
                        <Array as="points"/>
                    </mxGeometry>
                </mxCell>
                <mxCell id="1779" style="edgeStyle=none;html=1;exitX=0.5;exitY=0;exitDx=0;exitDy=0;endArrow=none;endFill=0;" parent="1" source="1781" edge="1">
                    <mxGeometry relative="1" as="geometry">
                        <mxPoint x="-2315.5699999999997" y="-880.5799999999999" as="targetPoint"/>
                    </mxGeometry>
                </mxCell>
                <mxCell id="1780" value="(0, N)" style="edgeLabel;html=1;align=center;verticalAlign=middle;resizable=0;points=[];" parent="1779" vertex="1" connectable="0">
                    <mxGeometry x="-0.3714" y="3" relative="1" as="geometry">
                        <mxPoint x="23" y="2" as="offset"/>
                    </mxGeometry>
                </mxCell>
                <mxCell id="1781" value="&lt;font style=&quot;font-size: 11px;&quot;&gt;presenza&lt;/font&gt;" style="rhombus;whiteSpace=wrap;html=1;rounded=0;" parent="1" vertex="1">
                    <mxGeometry x="-2365.41" y="-840.9300000000001" width="100" height="40" as="geometry"/>
                </mxCell>
                <mxCell id="1782" value="" style="endArrow=oval;html=1;fillStyle=auto;strokeWidth=1;startSize=6;endSize=6;fillColor=#000000;startArrow=none;startFill=0;endFill=0;" parent="1" edge="1">
                    <mxGeometry width="50" height="50" relative="1" as="geometry">
                        <mxPoint x="-2355.4119688350233" y="-920.54" as="sourcePoint"/>
                        <mxPoint x="-2385.5699999999997" y="-950.5799999999999" as="targetPoint"/>
                    </mxGeometry>
                </mxCell>
                <mxCell id="1783" value="messaggio" style="edgeLabel;html=1;align=center;verticalAlign=middle;resizable=0;points=[];" parent="1782" connectable="0" vertex="1">
                    <mxGeometry x="0.4791" y="1" relative="1" as="geometry">
                        <mxPoint x="-45" y="-6" as="offset"/>
                    </mxGeometry>
                </mxCell>
                <mxCell id="1790" value="" style="endArrow=oval;html=1;fillStyle=auto;strokeWidth=1;startSize=6;endSize=6;fillColor=#000000;startArrow=none;startFill=0;endFill=0;strokeColor=#000000;exitX=0.828;exitY=1.013;exitDx=0;exitDy=0;exitPerimeter=0;" parent="1" source="1770" edge="1">
                    <mxGeometry width="50" height="50" relative="1" as="geometry">
                        <mxPoint x="-2223.780476941269" y="-829.8399999999999" as="sourcePoint"/>
                        <mxPoint x="-2255.5699999999997" y="-860.5799999999999" as="targetPoint"/>
                    </mxGeometry>
                </mxCell>
                <mxCell id="1791" value="tipologia" style="edgeLabel;html=1;align=center;verticalAlign=middle;resizable=0;points=[];" parent="1790" vertex="1" connectable="0">
                    <mxGeometry x="0.4791" y="1" relative="1" as="geometry">
                        <mxPoint x="30" y="15" as="offset"/>
                    </mxGeometry>
                </mxCell>
                <mxCell id="1792" value="&lt;font style=&quot;font-size: 10px;&quot;&gt;(0,1)&lt;/font&gt;" style="text;html=1;align=center;verticalAlign=middle;resizable=0;points=[];autosize=1;strokeColor=none;fillColor=none;fontColor=#000000;" parent="1" vertex="1">
                    <mxGeometry x="-2405.41" y="-950.5" width="40" height="30" as="geometry"/>
                </mxCell>
                <mxCell id="1793" value="&lt;span style=&quot;color: rgb(0, 0, 0); font-family: Helvetica; font-size: 10px; font-style: normal; font-variant-ligatures: normal; font-variant-caps: normal; font-weight: 400; letter-spacing: normal; orphans: 2; text-align: center; text-indent: 0px; text-transform: none; widows: 2; word-spacing: 0px; -webkit-text-stroke-width: 0px; background-color: rgb(251, 251, 251); text-decoration-thickness: initial; text-decoration-style: initial; text-decoration-color: initial; float: none; display: inline !important;&quot;&gt;(0,1)&lt;/span&gt;" style="text;whiteSpace=wrap;html=1;fontSize=10;fontColor=#000000;" parent="1" vertex="1">
                    <mxGeometry x="-2395.5699999999997" y="-880.5799999999999" width="50" height="40" as="geometry"/>
                </mxCell>
                <mxCell id="1810" value="" style="endArrow=oval;html=1;fillStyle=auto;strokeWidth=1;startSize=6;endSize=6;fillColor=#000000;startArrow=none;startFill=0;endFill=0;fontStyle=0" parent="1" source="1838" edge="1">
                    <mxGeometry width="50" height="50" relative="1" as="geometry">
                        <mxPoint x="-2116.87" y="-1033.8733333333337" as="sourcePoint"/>
                        <mxPoint x="-2140" y="-730.4999999999999" as="targetPoint"/>
                    </mxGeometry>
                </mxCell>
                <mxCell id="1811" value="data&lt;br&gt;inizio" style="edgeLabel;html=1;align=center;verticalAlign=middle;resizable=0;points=[];" parent="1810" vertex="1" connectable="0">
                    <mxGeometry x="0.4791" y="1" relative="1" as="geometry">
                        <mxPoint x="-12" y="-26" as="offset"/>
                    </mxGeometry>
                </mxCell>
                <mxCell id="1812" value="" style="edgeStyle=none;html=1;endArrow=none;endFill=0;fontStyle=0;entryX=1;entryY=0.5;entryDx=0;entryDy=0;" parent="1" source="1839" target="1842" edge="1">
                    <mxGeometry relative="1" as="geometry">
                        <mxPoint x="-1636.0000000000002" y="-610.68" as="targetPoint"/>
                        <Array as="points">
                            <mxPoint x="-1635.0000000000002" y="-608.68"/>
                        </Array>
                    </mxGeometry>
                </mxCell>
                <mxCell id="1813" value="" style="endArrow=oval;html=1;fillStyle=auto;strokeWidth=1;startSize=6;endSize=6;fillColor=#000000;startArrow=none;startFill=0;endFill=0;exitX=0.25;exitY=1;exitDx=0;exitDy=0;fontStyle=0" parent="1" source="1840" edge="1">
                    <mxGeometry width="50" height="50" relative="1" as="geometry">
                        <mxPoint x="-1779.1802458605123" y="-662.0699999999997" as="sourcePoint"/>
                        <mxPoint x="-1908.7200000000005" y="-652.8100000000001" as="targetPoint"/>
                    </mxGeometry>
                </mxCell>
                <mxCell id="1814" value="minutaggio" style="edgeLabel;html=1;align=center;verticalAlign=middle;resizable=0;points=[];" parent="1813" vertex="1" connectable="0">
                    <mxGeometry x="0.4791" y="1" relative="1" as="geometry">
                        <mxPoint y="16" as="offset"/>
                    </mxGeometry>
                </mxCell>
                <mxCell id="1815" value="" style="endArrow=oval;html=1;fillStyle=auto;strokeWidth=1;startSize=6;endSize=6;fillColor=#000000;startArrow=none;startFill=0;endFill=0;fontStyle=0" parent="1" source="1840" edge="1">
                    <mxGeometry width="50" height="50" relative="1" as="geometry">
                        <mxPoint x="-1769.1802458605123" y="-652.0699999999997" as="sourcePoint"/>
                        <mxPoint x="-1828.7200000000005" y="-732.8100000000001" as="targetPoint"/>
                    </mxGeometry>
                </mxCell>
                <mxCell id="1816" value="durata" style="edgeLabel;html=1;align=center;verticalAlign=middle;resizable=0;points=[];" parent="1815" vertex="1" connectable="0">
                    <mxGeometry x="0.4791" y="1" relative="1" as="geometry">
                        <mxPoint x="25" y="-9" as="offset"/>
                    </mxGeometry>
                </mxCell>
                <mxCell id="1817" style="edgeStyle=none;shape=connector;rounded=1;fillStyle=auto;html=1;labelBackgroundColor=default;strokeColor=default;strokeWidth=1;fontFamily=Helvetica;fontSize=11;fontColor=default;endArrow=none;endFill=0;startSize=6;endSize=6;fillColor=#000000;startArrow=oval;startFill=0;fontStyle=0" parent="1" target="1838" edge="1">
                    <mxGeometry relative="1" as="geometry">
                        <mxPoint x="-2070.895872814796" y="-670.8999999999997" as="targetPoint"/>
                        <mxPoint x="-2031" y="-726" as="sourcePoint"/>
                    </mxGeometry>
                </mxCell>
                <mxCell id="1818" value="premium" style="edgeLabel;html=1;align=center;verticalAlign=middle;resizable=0;points=[];fontSize=11;fontFamily=Helvetica;fontColor=default;" parent="1817" vertex="1" connectable="0">
                    <mxGeometry x="-0.2572" y="1" relative="1" as="geometry">
                        <mxPoint x="38" y="-8" as="offset"/>
                    </mxGeometry>
                </mxCell>
                <mxCell id="1819" value="" style="endArrow=oval;html=1;fillStyle=auto;strokeWidth=1;startSize=6;endSize=6;fillColor=#000000;startArrow=none;startFill=0;endFill=0;fontStyle=0" parent="1" source="1838" edge="1">
                    <mxGeometry width="50" height="50" relative="1" as="geometry">
                        <mxPoint x="-2089.1404769412693" y="-699.7899999999998" as="sourcePoint"/>
                        <mxPoint x="-2140" y="-650.4999999999999" as="targetPoint"/>
                    </mxGeometry>
                </mxCell>
                <mxCell id="1820" value="data&lt;br&gt;fine" style="edgeLabel;html=1;align=center;verticalAlign=middle;resizable=0;points=[];" parent="1819" vertex="1" connectable="0">
                    <mxGeometry x="0.4791" y="1" relative="1" as="geometry">
                        <mxPoint x="-27" y="4" as="offset"/>
                    </mxGeometry>
                </mxCell>
                <mxCell id="1821" value="(1, 1)" style="edgeStyle=none;html=1;endArrow=none;endFill=0;entryX=0.5;entryY=1;entryDx=0;entryDy=0;fontStyle=0;exitX=0;exitY=0.5;exitDx=0;exitDy=0;" parent="1" source="1842" edge="1">
                    <mxGeometry x="-0.6758" y="-12" relative="1" as="geometry">
                        <mxPoint as="offset"/>
                        <Array as="points">
                            <mxPoint x="-1870.0000000000002" y="-608.68"/>
                        </Array>
                        <mxPoint x="-1870.6100000000008" y="-672.0699999999998" as="targetPoint"/>
                        <mxPoint x="-1828.0991165975508" y="-611.37696113415" as="sourcePoint"/>
                    </mxGeometry>
                </mxCell>
                <mxCell id="1822" style="edgeStyle=none;html=1;exitX=1;exitY=0.5;exitDx=0;exitDy=0;endArrow=none;endFill=0;fontStyle=0" parent="1" source="1845" target="1839" edge="1">
                    <mxGeometry relative="1" as="geometry">
                        <Array as="points">
                            <mxPoint x="-1555.3800000000006" y="-530.06"/>
                            <mxPoint x="-1555.3800000000006" y="-690.06"/>
                        </Array>
                        <mxPoint x="-1575.1300000000006" y="-529.7299999999997" as="sourcePoint"/>
                    </mxGeometry>
                </mxCell>
                <mxCell id="1823" style="edgeStyle=none;html=1;exitX=0;exitY=0.5;exitDx=0;exitDy=0;entryX=1;entryY=0.5;entryDx=0;entryDy=0;endArrow=none;endFill=0;fontStyle=0" parent="1" source="1845" target="1838" edge="1">
                    <mxGeometry relative="1" as="geometry">
                        <Array as="points">
                            <mxPoint x="-1970.0000000000002" y="-530.68"/>
                            <mxPoint x="-1970.0000000000002" y="-689.68"/>
                        </Array>
                    </mxGeometry>
                </mxCell>
                <mxCell id="1824" value="(0, N)" style="edgeStyle=none;html=1;endArrow=none;endFill=0;exitX=0.5;exitY=1;exitDx=0;exitDy=0;fontStyle=0" parent="1" target="1847" edge="1">
                    <mxGeometry x="0.6553" y="-20" relative="1" as="geometry">
                        <mxPoint as="offset"/>
                        <mxPoint x="-2092.4500000000003" y="-669.7899999999998" as="sourcePoint"/>
                    </mxGeometry>
                </mxCell>
                <mxCell id="1825" value="(1, 1)" style="edgeStyle=none;html=1;endArrow=none;endFill=0;fontStyle=0" parent="1" source="1847" target="1846" edge="1">
                    <mxGeometry x="-0.4543" y="-19" relative="1" as="geometry">
                        <mxPoint as="offset"/>
                    </mxGeometry>
                </mxCell>
                <mxCell id="1826" value="" style="endArrow=none;html=1;strokeColor=#000000;entryX=0;entryY=1;entryDx=0;entryDy=0;fontStyle=0" parent="1" target="1848" edge="1">
                    <mxGeometry width="50" height="50" relative="1" as="geometry">
                        <mxPoint x="-1617.1900000000003" y="-710.4499999999997" as="sourcePoint"/>
                        <mxPoint x="-1595.3800000000006" y="-730.06" as="targetPoint"/>
                    </mxGeometry>
                </mxCell>
                <mxCell id="1827" value="" style="endArrow=none;html=1;strokeColor=#000000;fontSize=11;fontColor=#FF0000;exitX=0;exitY=0.25;exitDx=0;exitDy=0;entryX=1;entryY=1;entryDx=0;entryDy=0;fontStyle=0" parent="1" source="1846" target="1850" edge="1">
                    <mxGeometry width="50" height="50" relative="1" as="geometry">
                        <mxPoint x="-2181.4700000000003" y="-490.01" as="sourcePoint"/>
                        <mxPoint x="-2161.86" y="-539.88" as="targetPoint"/>
                    </mxGeometry>
                </mxCell>
                <mxCell id="1828" value="" style="endArrow=none;html=1;strokeColor=#000000;fontSize=11;fontColor=#FF0000;fontStyle=0" parent="1" edge="1">
                    <mxGeometry width="50" height="50" relative="1" as="geometry">
                        <mxPoint x="-2111.86" y="-469.88" as="sourcePoint"/>
                        <mxPoint x="-2111.86" y="-489.88" as="targetPoint"/>
                    </mxGeometry>
                </mxCell>
                <mxCell id="1829" value="" style="endArrow=none;html=1;strokeColor=#000000;fontSize=10;fontColor=#FF0000;fontStyle=0" parent="1" edge="1">
                    <mxGeometry width="50" height="50" relative="1" as="geometry">
                        <mxPoint x="-2151.86" y="-509.88" as="sourcePoint"/>
                        <mxPoint x="-2071.86" y="-539.88" as="targetPoint"/>
                        <Array as="points">
                            <mxPoint x="-2151.86" y="-539.88"/>
                        </Array>
                    </mxGeometry>
                </mxCell>
                <mxCell id="1830" value="" style="edgeStyle=none;html=1;endArrow=none;endFill=0;fontStyle=0" parent="1" target="1838" edge="1">
                    <mxGeometry x="-0.4777" y="20" relative="1" as="geometry">
                        <mxPoint as="offset"/>
                        <mxPoint x="-2171.87" y="-690.16" as="sourcePoint"/>
                        <mxPoint x="-1981.9775814708457" y="-860.31" as="targetPoint"/>
                    </mxGeometry>
                </mxCell>
                <mxCell id="1838" value="LIVE" style="whiteSpace=wrap;html=1;" parent="1" vertex="1">
                    <mxGeometry x="-2131.4700000000003" y="-709.7899999999998" width="80" height="40" as="geometry"/>
                </mxCell>
                <mxCell id="1839" value="VIDEO" style="whiteSpace=wrap;html=1;" parent="1" vertex="1">
                    <mxGeometry x="-1674.9900000000002" y="-709.9699999999999" width="80" height="40" as="geometry"/>
                </mxCell>
                <mxCell id="1840" value="CLIP" style="whiteSpace=wrap;html=1;" parent="1" vertex="1">
                    <mxGeometry x="-1909.2600000000004" y="-712.5499999999997" width="80" height="39.62" as="geometry"/>
                </mxCell>
                <mxCell id="1841" value="(0, N)" style="edgeLabel;html=1;align=center;verticalAlign=middle;resizable=0;points=[];fontSize=11;fontFamily=Helvetica;fontColor=default;" parent="1" vertex="1" connectable="0">
                    <mxGeometry x="-1674.9900000000005" y="-619.8799999999995" as="geometry"/>
                </mxCell>
                <mxCell id="1842" value="scomposizione" style="rhombus;whiteSpace=wrap;html=1;" parent="1" vertex="1">
                    <mxGeometry x="-1809.9900000000005" y="-628.7199999999998" width="120" height="40" as="geometry"/>
                </mxCell>
                <mxCell id="1843" value="(0,1)" style="edgeLabel;html=1;align=center;verticalAlign=middle;resizable=0;points=[];" parent="1" vertex="1" connectable="0">
                    <mxGeometry x="-1850.1710213351569" y="-540.0053522979167" as="geometry"/>
                </mxCell>
                <mxCell id="1844" value="(1,1)" style="edgeLabel;html=1;align=center;verticalAlign=middle;resizable=0;points=[];" parent="1" vertex="1" connectable="0">
                    <mxGeometry x="-1685.1576067585004" y="-540.0065635923235" as="geometry"/>
                </mxCell>
                <mxCell id="1845" value="riferimento" style="rhombus;whiteSpace=wrap;html=1;" parent="1" vertex="1">
                    <mxGeometry x="-1830.3100000000006" y="-549.9599999999998" width="120" height="40" as="geometry"/>
                </mxCell>
                <mxCell id="1846" value="AFFLUENZA" style="whiteSpace=wrap;html=1;" parent="1" vertex="1">
                    <mxGeometry x="-2132.0600000000004" y="-529.55" width="80" height="39.62" as="geometry"/>
                </mxCell>
                <mxCell id="1847" value="media&lt;br&gt;spettatori" style="rhombus;whiteSpace=wrap;html=1;" parent="1" vertex="1">
                    <mxGeometry x="-2141.78" y="-619.88" width="100.61" height="60" as="geometry"/>
                </mxCell>
                <mxCell id="1848" value="" style="ellipse;whiteSpace=wrap;html=1;aspect=fixed;strokeColor=#000000;" parent="1" vertex="1">
                    <mxGeometry x="-1596.5300000000007" y="-737.0199999999999" width="5.67" height="5.67" as="geometry"/>
                </mxCell>
                <mxCell id="1849" value="&lt;font style=&quot;font-size: 11px;&quot;&gt;durata&lt;/font&gt;" style="text;html=1;align=center;verticalAlign=middle;resizable=0;points=[];autosize=1;strokeColor=none;fillColor=none;" parent="1" vertex="1">
                    <mxGeometry x="-1594.9900000000002" y="-750.4499999999999" width="50" height="30" as="geometry"/>
                </mxCell>
                <mxCell id="1850" value="" style="ellipse;whiteSpace=wrap;html=1;aspect=fixed;strokeColor=#000000;fontSize=11;fontColor=#FF0000;" parent="1" vertex="1">
                    <mxGeometry x="-2165.1300000000006" y="-545.14" width="5.13" height="5.13" as="geometry"/>
                </mxCell>
                <mxCell id="1851" value="" style="ellipse;whiteSpace=wrap;html=1;aspect=fixed;strokeColor=#000000;fontSize=11;fontColor=#FF0000;" parent="1" vertex="1">
                    <mxGeometry x="-2114.73" y="-469.62" width="5.74" height="5.74" as="geometry"/>
                </mxCell>
                <mxCell id="1852" value="&lt;font color=&quot;#000000&quot; style=&quot;font-size: 11px;&quot;&gt;numero &lt;br&gt;spettatori&lt;/font&gt;" style="text;html=1;align=center;verticalAlign=middle;resizable=0;points=[];autosize=1;strokeColor=none;fillColor=none;fontSize=11;fontColor=#FF0000;" parent="1" vertex="1">
                    <mxGeometry x="-2146.78" y="-469.62" width="70" height="40" as="geometry"/>
                </mxCell>
                <mxCell id="1853" value="&lt;font style=&quot;font-size: 11px;&quot; color=&quot;#000000&quot;&gt;timestamp&lt;/font&gt;" style="text;html=1;align=center;verticalAlign=middle;resizable=0;points=[];autosize=1;strokeColor=none;fillColor=none;fontSize=10;fontColor=#FF0000;" parent="1" vertex="1">
                    <mxGeometry x="-2230" y="-559.5500000000001" width="70" height="30" as="geometry"/>
                </mxCell>
                <mxCell id="1854" value="" style="shape=waypoint;fillStyle=solid;size=6;pointerEvents=1;points=[];fillColor=none;resizable=0;rotatable=0;perimeter=centerPerimeter;snapToPoint=1;strokeColor=#000000;fontSize=10;fontColor=#FF0000;" parent="1" vertex="1">
                    <mxGeometry x="-2161.78" y="-519.74" width="20" height="20" as="geometry"/>
                </mxCell>
                <mxCell id="1872" value="&lt;font style=&quot;font-size: 12px;&quot;&gt;contenuto&lt;br&gt;live&lt;/font&gt;" style="rhombus;whiteSpace=wrap;html=1;" parent="1" vertex="1">
                    <mxGeometry x="-2141.47" y="-825.63" width="100" height="50" as="geometry"/>
                </mxCell>
                <mxCell id="1873" value="&lt;font style=&quot;font-size: 12px;&quot;&gt;contenuto&lt;br&gt;clip&lt;/font&gt;" style="rhombus;whiteSpace=wrap;html=1;" parent="1" vertex="1">
                    <mxGeometry x="-1919.2600000000004" y="-825.63" width="100" height="50" as="geometry"/>
                </mxCell>
                <mxCell id="1874" value="&lt;font style=&quot;font-size: 12px;&quot;&gt;contenuto&lt;br&gt;video&lt;/font&gt;" style="rhombus;whiteSpace=wrap;html=1;" parent="1" vertex="1">
                    <mxGeometry x="-1690.0000000000002" y="-825.63" width="100" height="50" as="geometry"/>
                </mxCell>
                <mxCell id="1875" value="" style="endArrow=none;html=1;fontSize=10;entryX=0.5;entryY=1;entryDx=0;entryDy=0;exitX=0.5;exitY=0;exitDx=0;exitDy=0;" parent="1" source="1838" target="1872" edge="1">
                    <mxGeometry width="50" height="50" relative="1" as="geometry">
                        <mxPoint x="-2090" y="-685.63" as="sourcePoint"/>
                        <mxPoint x="-2040.0000000000002" y="-734.74" as="targetPoint"/>
                    </mxGeometry>
                </mxCell>
                <mxCell id="1876" value="" style="endArrow=none;html=1;fontSize=10;exitX=0.5;exitY=0;exitDx=0;exitDy=0;entryX=0.5;entryY=1;entryDx=0;entryDy=0;" parent="1" source="1840" target="1873" edge="1">
                    <mxGeometry width="50" height="50" relative="1" as="geometry">
                        <mxPoint x="-1872.2700000000007" y="-687.4999999999999" as="sourcePoint"/>
                        <mxPoint x="-1870.0000000000002" y="-715.63" as="targetPoint"/>
                    </mxGeometry>
                </mxCell>
                <mxCell id="1877" value="" style="endArrow=none;html=1;fontSize=10;exitX=0.436;exitY=0;exitDx=0;exitDy=0;entryX=0.5;entryY=1;entryDx=0;entryDy=0;exitPerimeter=0;" parent="1" source="1839" target="1874" edge="1">
                    <mxGeometry width="50" height="50" relative="1" as="geometry">
                        <mxPoint x="-1638.5800000000006" y="-684.7399999999999" as="sourcePoint"/>
                        <mxPoint x="-1640.0000000000002" y="-725.63" as="targetPoint"/>
                    </mxGeometry>
                </mxCell>
                <mxCell id="1878" value="" style="endArrow=oval;html=1;fillStyle=auto;strokeWidth=1;startSize=6;endSize=6;fillColor=#000000;startArrow=none;startFill=0;endFill=1;fontStyle=0;exitX=0.652;exitY=0.01;exitDx=0;exitDy=0;exitPerimeter=0;" parent="1" source="1838" edge="1">
                    <mxGeometry width="50" height="50" relative="1" as="geometry">
                        <mxPoint x="-2068.99" y="-731.3499999999998" as="sourcePoint"/>
                        <mxPoint x="-2070" y="-740" as="targetPoint"/>
                        <Array as="points"/>
                    </mxGeometry>
                </mxCell>
                <mxCell id="1879" value="" style="endArrow=oval;html=1;fillStyle=auto;strokeWidth=1;startSize=6;endSize=6;fillColor=#000000;startArrow=none;startFill=0;endFill=1;fontStyle=0;exitX=0.299;exitY=0;exitDx=0;exitDy=0;exitPerimeter=0;" parent="1" source="1840" edge="1">
                    <mxGeometry width="50" height="50" relative="1" as="geometry">
                        <mxPoint x="-1891" y="-717" as="sourcePoint"/>
                        <mxPoint x="-1909" y="-734" as="targetPoint"/>
                        <Array as="points"/>
                    </mxGeometry>
                </mxCell>
                <mxCell id="1880" value="" style="endArrow=oval;html=1;fillStyle=auto;strokeWidth=1;startSize=6;endSize=6;fillColor=#000000;startArrow=none;startFill=0;endFill=1;fontStyle=0;exitX=0.25;exitY=0;exitDx=0;exitDy=0;" parent="1" source="1839" edge="1">
                    <mxGeometry width="50" height="50" relative="1" as="geometry">
                        <mxPoint x="-1619.99" y="-731.3499999999998" as="sourcePoint"/>
                        <mxPoint x="-1677" y="-732" as="targetPoint"/>
                        <Array as="points"/>
                    </mxGeometry>
                </mxCell>
                <mxCell id="1881" value="&lt;font style=&quot;font-size: 12px;&quot;&gt;(1,1)&lt;/font&gt;" style="text;html=1;align=center;verticalAlign=middle;resizable=0;points=[];autosize=1;strokeColor=none;fillColor=none;fontSize=10;" parent="1" vertex="1">
                    <mxGeometry x="-2132.87" y="-786" width="50" height="30" as="geometry"/>
                </mxCell>
                <mxCell id="1882" value="&lt;font style=&quot;font-size: 12px;&quot;&gt;(1,1)&lt;/font&gt;" style="text;html=1;align=center;verticalAlign=middle;resizable=0;points=[];autosize=1;strokeColor=none;fillColor=none;fontSize=11;" parent="1" vertex="1">
                    <mxGeometry x="-1875.1700000000003" y="-780.63" width="50" height="30" as="geometry"/>
                </mxCell>
                <mxCell id="1883" value="&lt;font style=&quot;font-size: 12px;&quot;&gt;(1,1)&lt;/font&gt;" style="text;html=1;align=center;verticalAlign=middle;resizable=0;points=[];autosize=1;strokeColor=none;fillColor=none;fontSize=11;" parent="1" vertex="1">
                    <mxGeometry x="-1644.9900000000002" y="-780.63" width="50" height="30" as="geometry"/>
                </mxCell>
                <mxCell id="1884" value="" style="endArrow=none;html=1;fontSize=11;exitX=0.5;exitY=0;exitDx=0;exitDy=0;entryX=0.333;entryY=1.001;entryDx=0;entryDy=0;entryPerimeter=0;" parent="1" source="1872" target="1948" edge="1">
                    <mxGeometry width="50" height="50" relative="1" as="geometry">
                        <mxPoint x="-2090" y="-740.63" as="sourcePoint"/>
                        <mxPoint x="-1933" y="-930" as="targetPoint"/>
                        <Array as="points">
                            <mxPoint x="-2091" y="-870.63"/>
                            <mxPoint x="-1940" y="-870"/>
                        </Array>
                    </mxGeometry>
                </mxCell>
                <mxCell id="1885" value="" style="endArrow=none;html=1;fontSize=11;exitX=0.5;exitY=0;exitDx=0;exitDy=0;entryX=0.584;entryY=1.004;entryDx=0;entryDy=0;entryPerimeter=0;" parent="1" source="1873" target="1948" edge="1">
                    <mxGeometry width="50" height="50" relative="1" as="geometry">
                        <mxPoint x="-1880.0000000000002" y="-800.63" as="sourcePoint"/>
                        <mxPoint x="-1900" y="-930" as="targetPoint"/>
                        <Array as="points">
                            <mxPoint x="-1870.0000000000002" y="-860.63"/>
                            <mxPoint x="-1910" y="-860"/>
                        </Array>
                    </mxGeometry>
                </mxCell>
                <mxCell id="1886" value="" style="endArrow=none;html=1;fontSize=11;exitX=0.5;exitY=0;exitDx=0;exitDy=0;entryX=0.834;entryY=1.004;entryDx=0;entryDy=0;entryPerimeter=0;" parent="1" source="1874" target="1948" edge="1">
                    <mxGeometry width="50" height="50" relative="1" as="geometry">
                        <mxPoint x="-1750.0000000000002" y="-840.63" as="sourcePoint"/>
                        <mxPoint x="-1870" y="-930" as="targetPoint"/>
                        <Array as="points">
                            <mxPoint x="-1640.0000000000002" y="-870.63"/>
                            <mxPoint x="-1880" y="-871"/>
                        </Array>
                    </mxGeometry>
                </mxCell>
                <mxCell id="1887" value="&lt;font style=&quot;font-size: 12px;&quot;&gt;(0,1)&lt;/font&gt;" style="text;html=1;align=center;verticalAlign=middle;resizable=0;points=[];autosize=1;strokeColor=none;fillColor=none;fontSize=11;" parent="1" vertex="1">
                    <mxGeometry x="-2095" y="-850.63" width="50" height="30" as="geometry"/>
                </mxCell>
                <mxCell id="1888" value="&lt;font style=&quot;font-size: 12px;&quot;&gt;(0,1)&lt;/font&gt;" style="text;html=1;align=center;verticalAlign=middle;resizable=0;points=[];autosize=1;strokeColor=none;fillColor=none;fontSize=11;" parent="1" vertex="1">
                    <mxGeometry x="-1875.1700000000003" y="-850.63" width="50" height="30" as="geometry"/>
                </mxCell>
                <mxCell id="1889" value="&lt;font style=&quot;font-size: 12px;&quot;&gt;(0,1)&lt;/font&gt;" style="text;html=1;align=center;verticalAlign=middle;resizable=0;points=[];autosize=1;strokeColor=none;fillColor=none;fontSize=11;" parent="1" vertex="1">
                    <mxGeometry x="-1644.9900000000002" y="-850.63" width="50" height="30" as="geometry"/>
                </mxCell>
                <mxCell id="1890" value="(1, 1)" style="edgeStyle=elbowEdgeStyle;elbow=vertical;html=1;exitX=0.5;exitY=1;exitDx=0;exitDy=0;entryX=0.5;entryY=0;entryDx=0;entryDy=0;endArrow=none;endFill=0;rounded=0;jumpStyle=arc;startArrow=none;" parent="1" source="1895" target="1897" edge="1">
                    <mxGeometry x="-0.4926" y="-19" relative="1" as="geometry">
                        <mxPoint as="offset"/>
                        <mxPoint x="-1839.2199999999998" y="-1408.13" as="targetPoint"/>
                        <Array as="points">
                            <mxPoint x="-1838.5" y="-1417.44"/>
                            <mxPoint x="-1838.5" y="-1417.44"/>
                            <mxPoint x="-1838.5" y="-1417.44"/>
                        </Array>
                    </mxGeometry>
                </mxCell>
                <mxCell id="1891" value="UTENTE" style="whiteSpace=wrap;html=1;" parent="1" vertex="1">
                    <mxGeometry x="-1878.5" y="-1568.2600000000002" width="80" height="40" as="geometry"/>
                </mxCell>
                <mxCell id="1892" value="" style="endArrow=oval;html=1;fillStyle=auto;strokeWidth=1;startSize=6;endSize=6;fillColor=#000000;startArrow=none;startFill=0;endFill=1;exitX=0.5;exitY=0;exitDx=0;exitDy=0;" parent="1" source="1891" edge="1">
                    <mxGeometry width="50" height="50" relative="1" as="geometry">
                        <mxPoint x="-1699.08" y="-987.2400000000004" as="sourcePoint"/>
                        <mxPoint x="-1838.5" y="-1592.44" as="targetPoint"/>
                    </mxGeometry>
                </mxCell>
                <mxCell id="1893" value="nome utente" style="edgeLabel;html=1;align=center;verticalAlign=middle;resizable=0;points=[];" parent="1892" vertex="1" connectable="0">
                    <mxGeometry x="0.4791" y="1" relative="1" as="geometry">
                        <mxPoint x="-30" y="-21" as="offset"/>
                    </mxGeometry>
                </mxCell>
                <mxCell id="1894" value="(0, 1)" style="edgeStyle=elbowEdgeStyle;elbow=vertical;html=1;endArrow=none;endFill=0;rounded=0;jumpStyle=arc;exitX=0.5;exitY=1;exitDx=0;exitDy=0;entryX=0.5;entryY=0;entryDx=0;entryDy=0;" parent="1" source="1891" target="1895" edge="1">
                    <mxGeometry x="0.51" y="-19" relative="1" as="geometry">
                        <mxPoint x="-1838.5" y="-1522.44" as="sourcePoint"/>
                        <mxPoint x="-1839.5" y="-1488.44" as="targetPoint"/>
                        <mxPoint as="offset"/>
                        <Array as="points"/>
                    </mxGeometry>
                </mxCell>
                <mxCell id="1895" value="partizione" style="rhombus;whiteSpace=wrap;html=1;" parent="1" vertex="1">
                    <mxGeometry x="-1878.5" y="-1487.44" width="80" height="40" as="geometry"/>
                </mxCell>
                <mxCell id="1896" value="" style="endArrow=oval;html=1;fillStyle=auto;strokeWidth=1;startSize=6;endSize=6;fillColor=#000000;startArrow=none;startFill=0;endFill=1;exitX=0.618;exitY=0.001;exitDx=0;exitDy=0;exitPerimeter=0;" parent="1" source="1897" edge="1">
                    <mxGeometry width="50" height="50" relative="1" as="geometry">
                        <mxPoint x="-1853.6100000000001" y="-1417.44" as="sourcePoint"/>
                        <mxPoint x="-1812" y="-1433" as="targetPoint"/>
                    </mxGeometry>
                </mxCell>
                <mxCell id="1897" value="REGISTRATO" style="whiteSpace=wrap;html=1;" parent="1" vertex="1">
                    <mxGeometry x="-1878.5" y="-1410" width="80" height="40" as="geometry"/>
                </mxCell>
                <mxCell id="1898" value="" style="endArrow=oval;html=1;fillStyle=auto;strokeWidth=1;startSize=6;endSize=6;fillColor=#000000;startArrow=none;startFill=0;endFill=0;exitX=0;exitY=0.75;exitDx=0;exitDy=0;" parent="1" source="1897" edge="1">
                    <mxGeometry width="50" height="50" relative="1" as="geometry">
                        <mxPoint x="-1878.5000000000005" y="-1391.2" as="sourcePoint"/>
                        <mxPoint x="-1908" y="-1370" as="targetPoint"/>
                    </mxGeometry>
                </mxCell>
                <mxCell id="1899" value="password" style="edgeLabel;html=1;align=center;verticalAlign=middle;resizable=0;points=[];" parent="1898" vertex="1" connectable="0">
                    <mxGeometry x="0.4791" y="1" relative="1" as="geometry">
                        <mxPoint x="-38" y="10" as="offset"/>
                    </mxGeometry>
                </mxCell>
                <mxCell id="1900" value="" style="endArrow=oval;html=1;fillStyle=auto;strokeWidth=1;startSize=6;endSize=6;fillColor=#000000;startArrow=none;startFill=0;endFill=0;entryX=0.998;entryY=0.529;entryDx=0;entryDy=0;entryPerimeter=0;" parent="1" source="1897" target="1911" edge="1">
                    <mxGeometry width="50" height="50" relative="1" as="geometry">
                        <mxPoint x="-1902.4099999999999" y="-1108.4000000000003" as="sourcePoint"/>
                        <mxPoint x="-1782.5" y="-1352.3600000000004" as="targetPoint"/>
                    </mxGeometry>
                </mxCell>
                <mxCell id="1901" value="indirizzo&lt;br&gt;mail" style="edgeLabel;html=1;align=center;verticalAlign=middle;resizable=0;points=[];" parent="1900" vertex="1" connectable="0">
                    <mxGeometry x="0.4791" y="1" relative="1" as="geometry">
                        <mxPoint x="32" y="17" as="offset"/>
                    </mxGeometry>
                </mxCell>
                <mxCell id="1902" value="" style="endArrow=oval;html=1;fillStyle=auto;strokeWidth=1;startSize=6;endSize=6;fillColor=#000000;startArrow=none;startFill=0;endFill=0;exitX=1.003;exitY=0.152;exitDx=0;exitDy=0;exitPerimeter=0;" parent="1" source="1897" edge="1">
                    <mxGeometry width="50" height="50" relative="1" as="geometry">
                        <mxPoint x="-1765.26" y="-1440.64" as="sourcePoint"/>
                        <mxPoint x="-1765" y="-1422" as="targetPoint"/>
                    </mxGeometry>
                </mxCell>
                <mxCell id="1903" value="numero di&lt;br&gt;telefono" style="edgeLabel;html=1;align=center;verticalAlign=middle;resizable=0;points=[];" parent="1902" vertex="1" connectable="0">
                    <mxGeometry x="0.4791" y="1" relative="1" as="geometry">
                        <mxPoint x="37" y="-15" as="offset"/>
                    </mxGeometry>
                </mxCell>
                <mxCell id="1904" value="" style="endArrow=oval;html=1;fillStyle=auto;strokeWidth=1;startSize=6;endSize=6;fillColor=#000000;startArrow=none;startFill=0;endFill=0;exitX=1.002;exitY=0.432;exitDx=0;exitDy=0;exitPerimeter=0;" parent="1" edge="1">
                    <mxGeometry width="50" height="50" relative="1" as="geometry">
                        <mxPoint x="-1798.5000000000002" y="-1397" as="sourcePoint"/>
                        <mxPoint x="-1758" y="-1406" as="targetPoint"/>
                        <Array as="points"/>
                    </mxGeometry>
                </mxCell>
                <mxCell id="1905" value="data di&lt;br&gt;nascita" style="edgeLabel;html=1;align=center;verticalAlign=middle;resizable=0;points=[];" parent="1904" vertex="1" connectable="0">
                    <mxGeometry x="0.4791" y="1" relative="1" as="geometry">
                        <mxPoint x="35" y="-2" as="offset"/>
                    </mxGeometry>
                </mxCell>
                <mxCell id="1906" value="" style="endArrow=oval;html=1;fillStyle=auto;strokeWidth=1;startSize=6;endSize=6;fillColor=#000000;startArrow=none;startFill=0;endFill=0;exitX=0.109;exitY=0;exitDx=0;exitDy=0;exitPerimeter=0;" parent="1" source="1897" edge="1">
                    <mxGeometry width="50" height="50" relative="1" as="geometry">
                        <mxPoint x="-1869.3848388800843" y="-1410" as="sourcePoint"/>
                        <mxPoint x="-1900" y="-1440" as="targetPoint"/>
                        <Array as="points"/>
                    </mxGeometry>
                </mxCell>
                <mxCell id="1907" value="LIS" style="edgeLabel;html=1;align=center;verticalAlign=middle;resizable=0;points=[];" parent="1906" vertex="1" connectable="0">
                    <mxGeometry x="0.4791" y="1" relative="1" as="geometry">
                        <mxPoint x="-9" y="-20" as="offset"/>
                    </mxGeometry>
                </mxCell>
                <mxCell id="1908" value="" style="endArrow=oval;html=1;fillStyle=auto;strokeWidth=1;startSize=6;endSize=6;fillColor=#000000;startArrow=none;startFill=0;endFill=0;exitX=0.997;exitY=0.894;exitDx=0;exitDy=0;exitPerimeter=0;" parent="1" source="1897" edge="1">
                    <mxGeometry width="50" height="50" relative="1" as="geometry">
                        <mxPoint x="-1808.8149606299212" y="-1360.0000000000002" as="sourcePoint"/>
                        <mxPoint x="-1770" y="-1370" as="targetPoint"/>
                    </mxGeometry>
                </mxCell>
                <mxCell id="1909" value="premium" style="edgeLabel;html=1;align=center;verticalAlign=middle;resizable=0;points=[];" parent="1908" vertex="1" connectable="0">
                    <mxGeometry x="0.4791" y="1" relative="1" as="geometry">
                        <mxPoint x="32" y="6" as="offset"/>
                    </mxGeometry>
                </mxCell>
                <mxCell id="1910" value="&lt;font style=&quot;font-size: 10px;&quot;&gt;(0,1)&lt;/font&gt;" style="text;html=1;align=center;verticalAlign=middle;resizable=0;points=[];autosize=1;strokeColor=none;fillColor=none;" parent="1" vertex="1">
                    <mxGeometry x="-1803" y="-1440" width="40" height="30" as="geometry"/>
                </mxCell>
                <mxCell id="1911" value="(0,1)" style="text;html=1;align=center;verticalAlign=middle;resizable=0;points=[];autosize=1;strokeColor=none;fillColor=none;fontSize=10;" parent="1" vertex="1">
                    <mxGeometry x="-1830.5" y="-1364.0800000000002" width="39" height="24" as="geometry"/>
                </mxCell>
                <mxCell id="1912" value="" style="endArrow=oval;html=1;fillStyle=auto;strokeWidth=1;startSize=6;endSize=6;fillColor=#000000;startArrow=none;startFill=0;endFill=0;strokeColor=#000000;exitX=0;exitY=0.75;exitDx=0;exitDy=0;" parent="1" source="1897" edge="1">
                    <mxGeometry width="50" height="50" relative="1" as="geometry">
                        <mxPoint x="-1816.710476941269" y="-1307.8" as="sourcePoint"/>
                        <mxPoint x="-1890" y="-1340" as="targetPoint"/>
                    </mxGeometry>
                </mxCell>
                <mxCell id="1913" value="&lt;font style=&quot;font-size: 10px;&quot;&gt;(0, 1)&lt;/font&gt;" style="edgeLabel;html=1;align=center;verticalAlign=middle;resizable=0;points=[];fontSize=11;fontFamily=Helvetica;fontColor=default;" parent="1" vertex="1" connectable="0">
                    <mxGeometry x="-1894.0005193651582" y="-1355.9997648541805" as="geometry">
                        <mxPoint x="-8" y="4" as="offset"/>
                    </mxGeometry>
                </mxCell>
                <mxCell id="1914" value="&lt;font style=&quot;font-size: 11px;&quot;&gt;affiliate&lt;/font&gt;" style="text;html=1;align=center;verticalAlign=middle;resizable=0;points=[];autosize=1;strokeColor=none;fillColor=none;" parent="1" vertex="1">
                    <mxGeometry x="-1941.19" y="-1350.2800000000002" width="60" height="30" as="geometry"/>
                </mxCell>
                <mxCell id="1924" style="edgeStyle=none;html=1;exitX=1.001;exitY=0.597;exitDx=0;exitDy=0;endArrow=none;endFill=0;entryX=0;entryY=0.5;entryDx=0;entryDy=0;exitPerimeter=0;strokeWidth=1;strokeColor=#000000;" parent="1" target="1937" edge="1">
                    <mxGeometry relative="1" as="geometry">
                        <Array as="points">
                            <mxPoint x="-1780.3600000000001" y="-970.05"/>
                            <mxPoint x="-1780.3600000000001" y="-1000.05"/>
                        </Array>
                        <mxPoint x="-1859.9700000000003" y="-970.2604500000002" as="sourcePoint"/>
                    </mxGeometry>
                </mxCell>
                <mxCell id="1934" value="" style="edgeStyle=none;shape=connector;rounded=1;fillStyle=auto;html=1;labelBackgroundColor=default;strokeColor=#000000;strokeWidth=1;fontFamily=Helvetica;fontSize=11;fontColor=default;endArrow=none;endFill=0;startSize=6;endSize=6;fillColor=#000000;exitX=1;exitY=0.5;exitDx=0;exitDy=0;entryX=0;entryY=0.5;entryDx=0;entryDy=0;" parent="1" source="1937" target="1938" edge="1">
                    <mxGeometry relative="1" as="geometry">
                        <mxPoint x="-1558.9500000000003" y="-982.0800000000002" as="sourcePoint"/>
                        <mxPoint x="-1500.37" y="-947.77" as="targetPoint"/>
                        <Array as="points">
                            <mxPoint x="-1520.3600000000001" y="-1000.05"/>
                            <mxPoint x="-1520.3600000000001" y="-970.05"/>
                        </Array>
                    </mxGeometry>
                </mxCell>
                <mxCell id="1935" value="(0, N)" style="edgeLabel;html=1;align=center;verticalAlign=middle;resizable=0;points=[];fontSize=11;fontFamily=Helvetica;fontColor=default;strokeColor=#000000;" parent="1934" vertex="1" connectable="0">
                    <mxGeometry x="0.4262" y="1" relative="1" as="geometry">
                        <mxPoint x="-43" y="-39" as="offset"/>
                    </mxGeometry>
                </mxCell>
                <mxCell id="1936" value="(0, N)" style="edgeLabel;html=1;align=center;verticalAlign=middle;resizable=0;points=[];strokeColor=#000000;" parent="1" vertex="1" connectable="0">
                    <mxGeometry x="-1740.0863902477313" y="-1010.0506934179957" as="geometry">
                        <mxPoint as="offset"/>
                    </mxGeometry>
                </mxCell>
                <mxCell id="1937" value="&lt;font style=&quot;font-size: 12px;&quot;&gt;nuovo&lt;/font&gt;" style="rhombus;whiteSpace=wrap;html=1;strokeColor=#000000;strokeWidth=1;" parent="1" vertex="1">
                    <mxGeometry x="-1720.3600000000001" y="-1020.05" width="140" height="40.2" as="geometry"/>
                </mxCell>
                <mxCell id="1938" value="HASHTAG" style="rounded=0;whiteSpace=wrap;html=1;" parent="1" vertex="1">
                    <mxGeometry x="-1479.3600000000001" y="-990.0499999999997" width="80" height="40" as="geometry"/>
                </mxCell>
                <mxCell id="1939" value="" style="endArrow=oval;html=1;fillStyle=auto;strokeWidth=1;startSize=6;endSize=6;fillColor=#000000;startArrow=none;startFill=0;endFill=1;" parent="1" edge="1">
                    <mxGeometry width="50" height="50" relative="1" as="geometry">
                        <mxPoint x="-1440.3600000000001" y="-990.05" as="sourcePoint"/>
                        <mxPoint x="-1440.3600000000001" y="-1020.05" as="targetPoint"/>
                        <Array as="points"/>
                    </mxGeometry>
                </mxCell>
                <mxCell id="1940" value="nome" style="edgeLabel;html=1;align=center;verticalAlign=middle;resizable=0;points=[];" parent="1939" vertex="1" connectable="0">
                    <mxGeometry x="0.4791" y="1" relative="1" as="geometry">
                        <mxPoint x="21" y="-8" as="offset"/>
                    </mxGeometry>
                </mxCell>
                <mxCell id="1941" value="(0, N)" style="edgeLabel;html=1;align=center;verticalAlign=middle;resizable=0;points=[];fontSize=11;fontFamily=Helvetica;fontColor=default;strokeColor=#000000;" parent="1" vertex="1" connectable="0">
                    <mxGeometry x="-1560.3637049380231" y="-920.05" as="geometry">
                        <mxPoint x="-1" y="-1" as="offset"/>
                    </mxGeometry>
                </mxCell>
                <mxCell id="1942" value="(0, N)" style="edgeLabel;html=1;align=center;verticalAlign=middle;resizable=0;points=[];strokeColor=#000000;" parent="1" vertex="1" connectable="0">
                    <mxGeometry x="-1740.0863902477313" y="-920.0506934179957" as="geometry"/>
                </mxCell>
                <mxCell id="1943" value="&lt;font style=&quot;font-size: 12px;&quot;&gt;predefinito&lt;/font&gt;" style="rhombus;whiteSpace=wrap;html=1;strokeColor=#000000;strokeWidth=1;" parent="1" vertex="1">
                    <mxGeometry x="-1720.3600000000001" y="-950.0500000000002" width="140" height="40.2" as="geometry"/>
                </mxCell>
                <mxCell id="1944" style="edgeStyle=none;html=1;endArrow=none;endFill=0;entryX=0;entryY=0.5;entryDx=0;entryDy=0;exitX=1;exitY=0.803;exitDx=0;exitDy=0;exitPerimeter=0;strokeWidth=1;strokeColor=#000000;" parent="1" target="1943" edge="1">
                    <mxGeometry relative="1" as="geometry">
                        <Array as="points">
                            <mxPoint x="-1780.3600000000001" y="-960.05"/>
                            <mxPoint x="-1780.3600000000001" y="-930.05"/>
                        </Array>
                        <mxPoint x="-1860.0900000000001" y="-959.9295500000003" as="sourcePoint"/>
                        <mxPoint x="-1725.6490447881797" y="-959.9457542891773" as="targetPoint"/>
                    </mxGeometry>
                </mxCell>
                <mxCell id="1945" value="" style="edgeStyle=none;shape=connector;rounded=1;fillStyle=auto;html=1;labelBackgroundColor=default;strokeColor=#000000;strokeWidth=1;fontFamily=Helvetica;fontSize=11;fontColor=default;endArrow=none;endFill=0;startSize=6;endSize=6;fillColor=#000000;exitX=1;exitY=0.5;exitDx=0;exitDy=0;entryX=0;entryY=0.75;entryDx=0;entryDy=0;" parent="1" source="1943" target="1938" edge="1">
                    <mxGeometry relative="1" as="geometry">
                        <mxPoint x="-1554.83" y="-929.95" as="sourcePoint"/>
                        <mxPoint x="-1479.3600000000001" y="-910.0499999999997" as="targetPoint"/>
                        <Array as="points">
                            <mxPoint x="-1520.3600000000001" y="-930.05"/>
                            <mxPoint x="-1520.3600000000001" y="-960.05"/>
                        </Array>
                    </mxGeometry>
                </mxCell>
                <mxCell id="1948" value="CONTENUTO&lt;br&gt;MULTIMEDIALE" style="rounded=0;whiteSpace=wrap;html=1;" parent="1" vertex="1">
                    <mxGeometry x="-1980.19" y="-1004.2500000000001" width="120" height="50.15" as="geometry"/>
                </mxCell>
                <mxCell id="1951" value="" style="endArrow=oval;html=1;fillStyle=auto;strokeWidth=1;startSize=6;endSize=6;fillColor=#000000;startArrow=none;startFill=0;endFill=0;exitX=0.117;exitY=1.013;exitDx=0;exitDy=0;exitPerimeter=0;" parent="1" source="1948" edge="1">
                    <mxGeometry width="50" height="50" relative="1" as="geometry">
                        <mxPoint x="-1962.482098092643" y="-933.2499999999999" as="sourcePoint"/>
                        <mxPoint x="-2000.46" y="-944.1" as="targetPoint"/>
                    </mxGeometry>
                </mxCell>
                <mxCell id="1952" value="LIS" style="edgeLabel;html=1;align=center;verticalAlign=middle;resizable=0;points=[];" parent="1951" vertex="1" connectable="0">
                    <mxGeometry x="0.4791" y="1" relative="1" as="geometry">
                        <mxPoint x="-29" y="9" as="offset"/>
                    </mxGeometry>
                </mxCell>
                <mxCell id="1953" value="" style="endArrow=oval;html=1;fillStyle=auto;strokeWidth=1;startSize=6;endSize=6;fillColor=#000000;startArrow=none;startFill=0;endFill=1;exitX=0.25;exitY=0;exitDx=0;exitDy=0;" parent="1" source="1413" edge="1">
                    <mxGeometry width="50" height="50" relative="1" as="geometry">
                        <mxPoint x="-1980.19" y="-1180" as="sourcePoint"/>
                        <mxPoint x="-1960" y="-1190" as="targetPoint"/>
                    </mxGeometry>
                </mxCell>
                <mxCell id="1954" value="streamer" style="text;html=1;align=center;verticalAlign=middle;resizable=0;points=[];autosize=1;strokeColor=none;fillColor=none;" parent="1" vertex="1">
                    <mxGeometry x="-1996.19" y="-1215.19" width="70" height="30" as="geometry"/>
                </mxCell>
                <mxCell id="1955" value="" style="endArrow=oval;html=1;fillStyle=auto;strokeWidth=1;startSize=6;endSize=6;fillColor=#000000;startArrow=none;startFill=0;endFill=1;exitX=0.301;exitY=0.004;exitDx=0;exitDy=0;exitPerimeter=0;" parent="1" source="1441" edge="1">
                    <mxGeometry width="50" height="50" relative="1" as="geometry">
                        <mxPoint x="-1718.99" y="-1568.26" as="sourcePoint"/>
                        <mxPoint x="-1700" y="-1570" as="targetPoint"/>
                    </mxGeometry>
                </mxCell>
                <mxCell id="1956" value="utente" style="text;html=1;align=center;verticalAlign=middle;resizable=0;points=[];autosize=1;strokeColor=none;fillColor=none;" parent="1" vertex="1">
                    <mxGeometry x="-1734.03" y="-1598.26" width="60" height="30" as="geometry"/>
                </mxCell>
                <mxCell id="1961" value="id live&lt;br&gt;" style="text;html=1;align=center;verticalAlign=middle;resizable=0;points=[];autosize=1;strokeColor=none;fillColor=none;" parent="1" vertex="1">
                    <mxGeometry x="-2082.87" y="-767.02" width="50" height="30" as="geometry"/>
                </mxCell>
                <mxCell id="1964" value="id clip&lt;br&gt;" style="text;html=1;align=center;verticalAlign=middle;resizable=0;points=[];autosize=1;strokeColor=none;fillColor=none;" parent="1" vertex="1">
                    <mxGeometry x="-1942" y="-760" width="50" height="30" as="geometry"/>
                </mxCell>
                <mxCell id="1965" value="id video" style="text;html=1;align=center;verticalAlign=middle;resizable=0;points=[];autosize=1;strokeColor=none;fillColor=none;" parent="1" vertex="1">
                    <mxGeometry x="-1716" y="-757" width="60" height="30" as="geometry"/>
                </mxCell>
                <mxCell id="1966" value="username" style="text;html=1;align=center;verticalAlign=middle;resizable=0;points=[];autosize=1;strokeColor=none;fillColor=none;" parent="1" vertex="1">
                    <mxGeometry x="-1829.26" y="-1456.64" width="71" height="26" as="geometry"/>
                </mxCell>
            </root>
        </mxGraphModel>
    </diagram>
</mxfile>